<?xml version="1.0" encoding="UTF-8" standalone="no"?>
<!-- Created with Inkscape (http://www.inkscape.org/) -->

<svg
   xmlns:dc="http://purl.org/dc/elements/1.1/"
   xmlns:cc="http://creativecommons.org/ns#"
   xmlns:rdf="http://www.w3.org/1999/02/22-rdf-syntax-ns#"
   xmlns:svg="http://www.w3.org/2000/svg"
   xmlns="http://www.w3.org/2000/svg"
   version="1.1"
   width="20"
   height="20"
   id="svg2"
   xml:space="preserve"><metadata
     id="metadata8"><rdf:RDF><cc:Work
         rdf:about=""><dc:format>image/svg+xml</dc:format><dc:type
           rdf:resource="http://purl.org/dc/dcmitype/StillImage" /><dc:title></dc:title></cc:Work></rdf:RDF></metadata><defs
     id="defs6"><clipPath
       id="clipPath16"><path
         d="M 0,16 16,16 16,0 0,0 0,16 z"
         id="path18" /></clipPath></defs><g
     transform="matrix(1.25,0,0,-1.25,0,20)"
     id="g10"><g
       id="g12"><g
         clip-path="url(#clipPath16)"
         id="g14"><g
           transform="translate(12.2773,14.7754)"
           id="g20"><path
             d="m 0,0 c -0.184,0 -0.292,-0.271 -0.39,-0.789 -0.195,-1.05 -0.346,-2.12 -0.443,-3.169 0.605,1.428 1.061,2.692 1.061,3.482 C 0.228,-0.162 0.173,0 0,0 m -3.721,-0.832 c -0.259,0 -0.162,-1.104 0.044,-2.629 0.098,0.66 0.152,1.298 0.152,1.882 0,0.562 -0.077,0.747 -0.196,0.747 m -0.27,-4.207 c -0.141,1.092 -0.249,2.162 -0.249,3.244 0,0.627 0.119,1.2 0.476,1.2 0.401,0 0.487,-0.465 0.487,-1.232 0,-0.963 -0.086,-1.903 -0.239,-2.802 0.196,-1.417 0.402,-3.039 0.488,-4.487 0.432,1.157 1.015,2.476 1.579,3.752 0.086,1.417 0.292,2.942 0.616,4.542 0.097,0.466 0.313,1.114 0.821,1.114 0.358,0 0.509,-0.292 0.509,-0.778 0,-0.941 -0.638,-2.553 -1.406,-4.337 -0.303,-4.542 0.346,-8.49 2.088,-8.49 0.746,0 1.125,0.346 1.47,1.136 l 0.574,-0.196 c -0.401,-1.004 -1.049,-1.47 -1.98,-1.47 -1.871,0 -2.888,3.201 -2.725,7.711 -0.551,-1.255 -1.114,-2.509 -1.514,-3.612 0.021,-0.693 0.011,-1.33 -0.065,-1.86 l -0.562,0.021 c 0,0.336 0.064,0.746 0.184,1.2 -0.033,1.494 -0.228,2.91 -0.411,4.273 -0.909,-3.267 -2.812,-5.591 -5.04,-5.591 -1.676,0 -2.887,1.287 -2.887,2.974 0,1.632 1.178,3.428 3.017,3.428 1.124,0 1.936,-0.779 1.936,-1.958 0,-0.443 -0.239,-1.179 -0.552,-1.557 l -0.497,0.357 c 0.335,0.422 0.573,1.049 0.573,1.449 0,0.725 -0.455,1.396 -1.374,1.396 -1.654,0 -2.531,-1.483 -2.531,-3.061 0,-1.548 0.833,-2.725 2.412,-2.725 2.261,0 4.013,3.168 4.802,6.359"
             id="path22"
             style="fill:#292929;fill-opacity:1;fill-rule:nonzero;stroke:none" /></g></g></g></g></svg>