<?xml version="1.0" encoding="UTF-8" standalone="no"?>
<!-- Generator: Adobe Illustrator 16.0.4, SVG Export Plug-In . SVG Version: 6.00 Build 0)  -->

<svg
   xmlns:dc="http://purl.org/dc/elements/1.1/"
   xmlns:cc="http://creativecommons.org/ns#"
   xmlns:rdf="http://www.w3.org/1999/02/22-rdf-syntax-ns#"
   xmlns:svg="http://www.w3.org/2000/svg"
   xmlns="http://www.w3.org/2000/svg"
   xmlns:sodipodi="http://sodipodi.sourceforge.net/DTD/sodipodi-0.dtd"
   xmlns:inkscape="http://www.inkscape.org/namespaces/inkscape"
   version="1.1"
   id="Layer_1"
   x="0px"
   y="0px"
   width="119.999px"
   height="119.994px"
   viewBox="0 0 119.999 119.994"
   enable-background="new 0 0 119.999 119.994"
   xml:space="preserve"
   inkscape:version="0.48.2 r9819"
   sodipodi:docname="instagram.svg"><metadata
   id="metadata2995"><rdf:RDF><cc:Work
       rdf:about=""><dc:format>image/svg+xml</dc:format><dc:type
         rdf:resource="http://purl.org/dc/dcmitype/StillImage" /></cc:Work></rdf:RDF></metadata><defs
   id="defs2993" /><sodipodi:namedview
   pagecolor="#ffffff"
   bordercolor="#666666"
   borderopacity="1"
   objecttolerance="10"
   gridtolerance="10"
   guidetolerance="10"
   inkscape:pageopacity="0"
   inkscape:pageshadow="2"
   inkscape:window-width="721"
   inkscape:window-height="480"
   id="namedview2991"
   showgrid="false"
   inkscape:zoom="1.966765"
   inkscape:cx="59.9995"
   inkscape:cy="59.997002"
   inkscape:window-x="0"
   inkscape:window-y="0"
   inkscape:window-maximized="0"
   inkscape:current-layer="Layer_1" />
<g
   id="g2987"
   style="fill:#8a8a8a;fill-opacity:1">
	<path
   d="M93.334,9.999H26.672c-9.192,0-16.673,7.479-16.673,16.672v66.655c0,9.188,7.48,16.667,16.673,16.667h66.662   c9.188,0,16.665-7.479,16.665-16.667V26.671C109.999,17.478,102.521,9.999,93.334,9.999z M77.294,59.996   c0,9.552-7.742,17.298-17.295,17.298s-17.298-7.746-17.298-17.298c0-9.553,7.745-17.297,17.298-17.297S77.294,50.443,77.294,59.996   z M98.81,93.327c0,3.019-2.457,5.476-5.476,5.476H26.672c-3.023,0-5.48-2.457-5.48-5.476V52.801h11.239   c-0.601,2.301-0.919,4.71-0.919,7.194c0,15.709,12.78,28.489,28.487,28.489s28.487-12.78,28.487-28.489   c0-2.484-0.321-4.893-0.923-7.194H98.81V93.327z M98.81,26.671v9.311c0,1.295-1.05,2.346-2.348,2.346H84.015   c-1.294,0-2.344-1.05-2.344-2.346V23.536c0-1.295,1.05-2.346,2.344-2.346h9.319h3.128c1.298,0,2.348,1.05,2.348,2.346V26.671z"
   id="path2989"
   style="fill:#8a8a8a;fill-opacity:1" />
</g>
</svg>