<?xml version="1.0" encoding="UTF-8" standalone="no"?>
<!-- Generator: Adobe Illustrator 16.0.4, SVG Export Plug-In . SVG Version: 6.00 Build 0)  -->

<svg
   xmlns:dc="http://purl.org/dc/elements/1.1/"
   xmlns:cc="http://creativecommons.org/ns#"
   xmlns:rdf="http://www.w3.org/1999/02/22-rdf-syntax-ns#"
   xmlns:svg="http://www.w3.org/2000/svg"
   xmlns="http://www.w3.org/2000/svg"
   xmlns:sodipodi="http://sodipodi.sourceforge.net/DTD/sodipodi-0.dtd"
   xmlns:inkscape="http://www.inkscape.org/namespaces/inkscape"
   version="1.1"
   id="Layer_1"
   x="0px"
   y="0px"
   width="119.999px"
   height="119.994px"
   viewBox="0 0 119.999 119.994"
   enable-background="new 0 0 119.999 119.994"
   xml:space="preserve"
   inkscape:version="0.48.2 r9819"
   sodipodi:docname="linkedin.svg"><metadata
   id="metadata3006"><rdf:RDF><cc:Work
       rdf:about=""><dc:format>image/svg+xml</dc:format><dc:type
         rdf:resource="http://purl.org/dc/dcmitype/StillImage" /></cc:Work></rdf:RDF></metadata><defs
   id="defs3004" /><sodipodi:namedview
   pagecolor="#ffffff"
   bordercolor="#666666"
   borderopacity="1"
   objecttolerance="10"
   gridtolerance="10"
   guidetolerance="10"
   inkscape:pageopacity="0"
   inkscape:pageshadow="2"
   inkscape:window-width="721"
   inkscape:window-height="480"
   id="namedview3002"
   showgrid="false"
   inkscape:zoom="1.966765"
   inkscape:cx="59.9995"
   inkscape:cy="59.997002"
   inkscape:window-x="0"
   inkscape:window-y="0"
   inkscape:window-maximized="0"
   inkscape:current-layer="Layer_1" />
<g
   id="g2998"
   style="fill:#8a8a8a;fill-opacity:0.90196079">
	<path
   d="M93.334,9.999H26.672c-9.192,0-16.673,7.479-16.673,16.672v66.655c0,9.188,7.48,16.667,16.673,16.667h66.662   c9.188,0,16.665-7.479,16.665-16.667V26.671C109.999,17.478,102.521,9.999,93.334,9.999z M40.838,92.489   c-4.455,0.001-8.913,0-13.367,0c-0.106,0-0.212-0.005-0.318,0.001c-0.205,0.016-0.314-0.058-0.293-0.281c0.01-0.104,0-0.21,0-0.316   c0-14.212,0-28.424,0.003-42.636c0-0.688-0.067-0.597,0.604-0.597c4.458-0.004,8.913-0.002,13.371-0.002c0.12,0,0.24,0.005,0.36,0   c0.17-0.007,0.255,0.062,0.247,0.237c-0.007,0.134,0,0.271,0,0.407c0,7.106,0,14.212,0,21.318c0,7.09,0,14.182,0,21.272   C41.445,92.575,41.517,92.489,40.838,92.489z M41.351,38.962c-1.132,1.892-2.85,2.968-4.968,3.458   c-0.753,0.175-1.517,0.221-2.152,0.244c-1.898-0.018-3.567-0.394-5.042-1.416c-1.986-1.38-3.019-3.311-3.16-5.709   c-0.124-2.125,0.487-4.016,1.966-5.581c1.1-1.163,2.464-1.867,4.016-2.199c2.104-0.451,4.172-0.35,6.134,0.569   c2.38,1.11,3.723,3.025,4.144,5.595C42.58,35.709,42.283,37.407,41.351,38.962z M93.418,92.489c-4.476,0.001-8.947,0-13.42,0   c-0.092,0-0.18-0.007-0.271,0.001c-0.244,0.028-0.315-0.097-0.298-0.318c0.011-0.121,0.004-0.242,0.004-0.362   c0-7.621,0-15.239,0-22.861c0-1.633-0.162-3.246-0.646-4.813c-0.276-0.898-0.669-1.741-1.23-2.5   c-0.781-1.046-1.785-1.785-3.041-2.156c-1.834-0.543-3.658-0.509-5.44,0.205c-1.689,0.675-2.906,1.89-3.854,3.415   c-0.888,1.423-1.146,2.987-1.146,4.624c0,8.011,0,16.024,0,24.035c0,0.73,0,0.73-0.735,0.73c-4.43,0-8.855,0.001-13.286,0   c-0.597,0-0.54,0.057-0.537-0.521c0.007-3.012,0.004-6.024,0.028-9.037c0.071-9.23,0.05-18.461,0.05-27.694   c-0.004-2.017-0.046-4.034-0.071-6.051c0-0.046,0-0.09,0-0.136c-0.003-0.386-0.003-0.391,0.396-0.391   c2.396-0.002,4.79-0.002,7.184-0.002c2.139,0,4.277,0,6.413,0c0.109,0,0.216,0.007,0.318,0c0.173-0.011,0.251,0.062,0.24,0.235   c-0.004,0.106,0,0.21,0,0.316c0,1.686,0,3.373,0,5.061c0,0.143,0,0.288,0,0.479c0.201-0.099,0.251-0.248,0.332-0.364   c0.679-0.999,1.425-1.942,2.291-2.788c2.079-2.031,4.571-3.258,7.428-3.723c2.91-0.472,5.798-0.332,8.623,0.543   c4.172,1.292,7.155,3.977,9.054,7.891c0.912,1.884,1.471,3.878,1.807,5.938c0.279,1.743,0.382,3.499,0.378,5.264   c-0.007,8.133,0,16.264-0.003,24.397C93.984,92.575,94.062,92.487,93.418,92.489z"
   id="path3000"
   style="fill:#8a8a8a;fill-opacity:0.90196079" />
</g>
</svg>