<?xml version="1.0" encoding="UTF-8" standalone="no"?>
<!-- Generator: Adobe Illustrator 16.0.4, SVG Export Plug-In . SVG Version: 6.00 Build 0)  -->

<svg
   xmlns:dc="http://purl.org/dc/elements/1.1/"
   xmlns:cc="http://creativecommons.org/ns#"
   xmlns:rdf="http://www.w3.org/1999/02/22-rdf-syntax-ns#"
   xmlns:svg="http://www.w3.org/2000/svg"
   xmlns="http://www.w3.org/2000/svg"
   xmlns:sodipodi="http://sodipodi.sourceforge.net/DTD/sodipodi-0.dtd"
   xmlns:inkscape="http://www.inkscape.org/namespaces/inkscape"
   version="1.1"
   id="Layer_1"
   x="0px"
   y="0px"
   width="119.999px"
   height="102.948px"
   viewBox="0 0 119.999 102.948"
   enable-background="new 0 0 119.999 102.948"
   xml:space="preserve"
   inkscape:version="0.48.2 r9819"
   sodipodi:docname="twitter.svg"><metadata
   id="metadata3018"><rdf:RDF><cc:Work
       rdf:about=""><dc:format>image/svg+xml</dc:format><dc:type
         rdf:resource="http://purl.org/dc/dcmitype/StillImage" /></cc:Work></rdf:RDF></metadata><defs
   id="defs3016" /><sodipodi:namedview
   pagecolor="#ffffff"
   bordercolor="#666666"
   borderopacity="1"
   objecttolerance="10"
   gridtolerance="10"
   guidetolerance="10"
   inkscape:pageopacity="0"
   inkscape:pageshadow="2"
   inkscape:window-width="1155"
   inkscape:window-height="745"
   id="namedview3014"
   showgrid="false"
   inkscape:zoom="2.2924195"
   inkscape:cx="59.9995"
   inkscape:cy="51.473999"
   inkscape:window-x="0"
   inkscape:window-y="0"
   inkscape:window-maximized="0"
   inkscape:current-layer="Layer_1" />
<g
   id="J3PKbq.tif_5_"
   style="fill:#8a8a8a;fill-opacity:1">
	<g
   id="g3010"
   style="fill:#8a8a8a;fill-opacity:1">
		<path
   fill-rule="evenodd"
   clip-rule="evenodd"
   d="M109.999,20.126c-0.48,3.764-5.939,7.542-9.249,10.404    c3.264,48.126-51.104,78.143-90.751,53.758c11.119,0.083,23.444-2.968,30.06-9.248c-9.62-1.557-16.434-5.92-19.078-14.452    c2.818-0.267,6.771,0.604,8.669-0.578c-8.796-3.341-15.751-8.524-16.186-20.232c3.136,0.335,4.763,2.172,8.673,1.736    c-5.688-3.649-12.184-17.519-6.357-27.749C26.1,25.214,38.99,34.099,59.133,35.732C54.137,14.485,82.302,1.322,94.97,16.658    c4.925-1.048,9.079-2.871,13.293-4.625c-1.725,4.824-5.232,7.867-8.669,10.981C103.327,22.318,107.273,21.832,109.999,20.126z"
   id="path3012"
   style="fill:#8a8a8a;fill-opacity:1" />
	</g>
</g>
</svg>