<?xml version="1.0" encoding="UTF-8" standalone="no"?>
<!-- Created with Inkscape (http://www.inkscape.org/) -->

<svg
   xmlns:dc="http://purl.org/dc/elements/1.1/"
   xmlns:cc="http://creativecommons.org/ns#"
   xmlns:rdf="http://www.w3.org/1999/02/22-rdf-syntax-ns#"
   xmlns:svg="http://www.w3.org/2000/svg"
   xmlns="http://www.w3.org/2000/svg"
   version="1.1"
   width="131"
   height="50.154224"
   viewBox="0 0 131 50.154226"
   id="Layer_1"
   xml:space="preserve"><metadata
   id="metadata39"><rdf:RDF><cc:Work
       rdf:about=""><dc:format>image/svg+xml</dc:format><dc:type
         rdf:resource="http://purl.org/dc/dcmitype/StillImage" /><dc:title></dc:title></cc:Work></rdf:RDF></metadata><defs
   id="defs37" />
<g
   transform="matrix(0.43666668,0,0,0.43666668,-4.3666732,-4.3666668)"
   id="g3"
   style="fill:#3a3a3a;fill-opacity:1">
	<path
   d="m 30.283,100.88 -9.237,12.857 c -0.109,0.109 -0.253,0.181 -0.398,0.181 h -0.072 c -0.181,0 -0.327,-0.072 -0.399,-0.181 l -9.272,-12.895 v 23.071 c 0,0.255 -0.181,0.472 -0.435,0.472 -0.254,0 -0.47,-0.216 -0.47,-0.47 V 99.539 c 0,-0.216 0.217,-0.47 0.47,-0.47 0.037,0 0.074,0 0.109,0.035 0.109,0 0.218,0.074 0.326,0.146 l 9.707,13.473 9.707,-13.473 c 0.072,-0.072 0.181,-0.146 0.291,-0.146 0.035,-0.035 0.072,-0.035 0.109,-0.035 0.289,0 0.47,0.253 0.47,0.47 v 24.375 c 0,0.255 -0.182,0.472 -0.47,0.472 -0.218,0 -0.435,-0.217 -0.435,-0.472 V 100.88 z"
   id="path5"
   style="fill:#3a3a3a;fill-opacity:1" />
	<path
   d="M 60.994,117.504 H 48.316 l -2.426,6.484 c -0.037,0.181 -0.218,0.326 -0.399,0.326 -0.035,0 -0.109,-0.037 -0.181,-0.037 -0.217,-0.107 -0.326,-0.362 -0.217,-0.616 l 9.128,-24.338 c 0.072,-0.218 0.253,-0.326 0.47,-0.291 0.181,0 0.362,0.109 0.471,0.291 l 9.126,24.338 c 0.109,0.253 -0.036,0.508 -0.253,0.616 -0.072,0 -0.109,0.037 -0.145,0.037 -0.181,0 -0.362,-0.145 -0.472,-0.326 l -2.424,-6.484 z m -12.316,-0.942 h 11.953 l -5.977,-15.864 -5.976,15.864 z"
   id="path7"
   style="fill:#3a3a3a;fill-opacity:1" />
	<path
   d="m 88.36,112.361 c -0.218,0 -0.472,-0.217 -0.472,-0.435 0,-0.291 0.253,-0.507 0.472,-0.507 h 8.223 0.071 c 0.253,0 0.436,0.217 0.436,0.507 v 9.2 c 0,0.037 0,0.072 -0.038,0.109 v 0.072 c -0.036,0.109 -0.071,0.181 -0.145,0.253 -2.246,1.739 -5.178,2.825 -8.329,2.825 -7.389,-0.037 -13.401,-5.868 -13.401,-13.111 0,-7.172 6.012,-13.003 13.401,-13.003 3.151,0 6.083,1.051 8.329,2.825 0.253,0.182 0.289,0.472 0.109,0.725 -0.144,0.181 -0.507,0.217 -0.687,0.036 -2.102,-1.666 -4.819,-2.679 -7.751,-2.679 -6.882,0 -12.459,5.469 -12.459,12.097 0,6.736 5.578,12.169 12.459,12.169 2.824,0 5.467,-0.941 7.569,-2.499 v -8.584 H 88.36 z"
   id="path9"
   style="fill:#3a3a3a;fill-opacity:1" />
	<path
   d="m 113.182,124.386 h -0.074 c -0.253,0 -0.472,-0.217 -0.472,-0.472 v -24.41 c 0,-0.253 0.218,-0.472 0.472,-0.472 0.254,0 0.436,0.218 0.436,0.472 v 23.978 h 13.074 c 0.289,0 0.472,0.18 0.472,0.433 0,0.255 -0.183,0.472 -0.472,0.472 h -13.436 z"
   id="path11"
   style="fill:#3a3a3a;fill-opacity:1" />
	<path
   d="m 140.211,99.504 c 0,-0.291 0.183,-0.472 0.472,-0.472 0.218,0 0.436,0.181 0.436,0.472 v 24.411 c 0,0.29 -0.218,0.472 -0.436,0.472 -0.289,0 -0.472,-0.182 -0.472,-0.472 V 99.504 z"
   id="path13"
   style="fill:#3a3a3a;fill-opacity:1" />
	<path
   d="m 168.646,98.671 c 6.844,0 12.313,5.831 12.387,13.074 -0.074,7.28 -5.543,13.112 -12.387,13.112 -6.847,0 -12.313,-5.833 -12.352,-13.112 0.039,-7.243 5.506,-13.074 12.352,-13.074 z m 0,25.208 c 6.192,-0.072 11.335,-5.433 11.374,-12.134 -0.039,-6.736 -5.181,-12.132 -11.374,-12.132 -6.23,0 -11.374,5.396 -11.374,12.132 0.001,6.701 5.144,12.062 11.374,12.134 z"
   id="path15"
   style="fill:#3a3a3a;fill-opacity:1" />
	<path
   d="m 215.8,100.88 -9.237,12.857 c -0.109,0.109 -0.253,0.181 -0.398,0.181 h -0.071 c -0.183,0 -0.327,-0.072 -0.401,-0.181 l -9.272,-12.895 v 23.071 c 0,0.255 -0.18,0.472 -0.433,0.472 -0.253,0 -0.472,-0.217 -0.472,-0.472 V 99.539 c 0,-0.216 0.218,-0.47 0.472,-0.47 0.035,0 0.074,0 0.109,0.035 0.109,0 0.218,0.074 0.324,0.146 l 9.708,13.473 9.705,-13.473 c 0.074,-0.072 0.183,-0.146 0.292,-0.146 0.035,-0.035 0.071,-0.035 0.109,-0.035 0.289,0 0.469,0.253 0.469,0.47 v 24.375 c 0,0.255 -0.18,0.472 -0.469,0.472 -0.218,0 -0.436,-0.217 -0.436,-0.472 V 100.88 z"
   id="path17"
   style="fill:#3a3a3a;fill-opacity:1" />
	<path
   d="m 246.51,117.504 h -12.676 l -2.426,6.484 c -0.038,0.181 -0.218,0.326 -0.4,0.326 -0.036,0 -0.109,-0.037 -0.18,-0.037 -0.218,-0.107 -0.327,-0.362 -0.218,-0.616 l 9.127,-24.338 c 0.074,-0.218 0.253,-0.326 0.472,-0.291 0.18,0 0.362,0.109 0.472,0.291 l 9.125,24.338 c 0.109,0.253 -0.035,0.508 -0.253,0.616 -0.071,0 -0.109,0.037 -0.145,0.037 -0.18,0 -0.362,-0.145 -0.472,-0.326 l -2.426,-6.484 z m -12.314,-0.942 h 11.951 l -5.977,-15.864 -5.974,15.864 z"
   id="path19"
   style="fill:#3a3a3a;fill-opacity:1" />
	<path
   d="m 262.806,99.504 c 0,-0.253 0.183,-0.472 0.472,-0.472 h 0.035 4.819 c 7.026,0 12.676,5.687 12.676,12.641 0,7.026 -5.65,12.713 -12.676,12.713 h -4.819 -0.035 c -0.289,0 -0.472,-0.217 -0.472,-0.472 v -24.41 z m 5.325,23.977 c 6.519,-0.074 11.733,-5.289 11.771,-11.809 -0.038,-6.447 -5.252,-11.734 -11.771,-11.734 h -4.421 v 23.543 h 4.421 z"
   id="path21"
   style="fill:#3a3a3a;fill-opacity:1" />
	<path
   d="m 296.127,124.386 h -0.071 c -0.292,0 -0.437,-0.217 -0.437,-0.472 v -24.41 c 0,-0.218 0.145,-0.435 0.437,-0.472 h 0.035 0.036 13.437 c 0.256,0 0.436,0.218 0.436,0.472 0,0.254 -0.18,0.435 -0.436,0.435 h -13.039 v 11.3 h 11.483 c 0.253,0 0.436,0.218 0.436,0.435 0,0.291 -0.183,0.472 -0.436,0.472 h -11.483 v 11.337 h 13.039 c 0.256,0 0.436,0.18 0.436,0.433 0,0.255 -0.18,0.472 -0.436,0.472 h -13.398 -0.039 z"
   id="path23"
   style="fill:#3a3a3a;fill-opacity:1" />
</g>
<g
   transform="matrix(0.43666668,0,0,0.43666668,-4.3666732,-4.3666668)"
   id="g25"
   style="fill:#3a3a3a;fill-opacity:1">
	<path
   d="m 199.808,15.815 c -1.191,-1.883 -2.514,-3.672 -3.961,-5.355 l -4.677,4.68 -2.915,2.912 c 0.036,0.044 0.077,0.088 0.112,0.133 1.371,1.689 2.579,3.525 3.613,5.456 l 3.021,-3.021 c 3.295,5.691 5.193,12.287 5.193,19.321 0,9.352 -3.336,17.938 -8.88,24.636 -1.403,1.692 -2.953,3.258 -4.622,4.691 l 4.681,4.682 c 1.65,-1.452 3.195,-3.021 4.618,-4.693 6.723,-7.9 10.787,-18.13 10.787,-29.315 0,-8.875 -2.561,-17.142 -6.97,-24.127 z"
   id="path27"
   style="fill:#3a3a3a;fill-opacity:1" />
	<path
   d="m 128.686,64.576 c -5.545,-6.697 -8.881,-15.284 -8.881,-24.636 0,-7.034 1.898,-13.63 5.193,-19.321 l 3.021,3.021 c 1.035,-1.931 2.243,-3.767 3.613,-5.456 0.036,-0.044 0.074,-0.088 0.11,-0.133 l -2.913,-2.912 -4.679,-4.68 c -1.446,1.683 -2.769,3.472 -3.958,5.355 -4.41,6.985 -6.972,15.252 -6.972,24.125 0,11.185 4.064,21.415 10.787,29.315 1.423,1.672 2.968,3.24 4.618,4.693 l 4.681,-4.682 c -1.668,-1.431 -3.219,-2.997 -4.62,-4.689 z"
   id="path29"
   style="fill:#3a3a3a;fill-opacity:1" />
	<path
   d="m 182.791,30.439 c -0.793,-1.893 -1.833,-3.687 -3.086,-5.344 l -14.689,14.689 -4.657,4.657 -0.36,0.358 -0.359,-0.358 -4.657,-4.657 -14.689,-14.689 c -1.252,1.657 -2.293,3.451 -3.084,5.344 -0.087,0.212 -0.167,0.424 -0.248,0.636 l 13.367,13.366 4.654,4.653 5.016,5.017 5.017,-5.017 4.654,-4.653 13.369,-13.366 c -0.083,-0.211 -0.163,-0.424 -0.248,-0.636 z"
   id="path31"
   style="fill:#3a3a3a;fill-opacity:1" />
	<path
   d="m 189.26,23.342 c -1.038,-2.006 -2.27,-3.892 -3.681,-5.632 -1.1,-1.355 -2.337,-2.586 -3.637,-3.752 -0.465,-0.416 -0.909,-0.854 -1.397,-1.244 C 179.281,11.703 177.916,10.818 176.51,10 L 159.999,26.509 143.489,10 c -1.406,0.818 -2.771,1.704 -4.035,2.714 -0.488,0.389 -0.932,0.828 -1.396,1.244 -1.301,1.165 -2.539,2.396 -3.64,3.752 -1.41,1.74 -2.642,3.626 -3.68,5.632 -2.335,4.521 -3.664,9.648 -3.664,15.088 0,7.775 2.7,14.913 7.206,20.547 1.376,1.72 2.918,3.298 4.604,4.71 L 143.574,59 c -1.721,-1.378 -3.266,-2.96 -4.595,-4.72 -3.336,-4.412 -5.32,-9.903 -5.32,-15.849 0,-3.59 0.725,-7.015 2.031,-10.137 0.887,-2.114 2.044,-4.091 3.425,-5.887 1.067,-1.385 2.266,-2.661 3.581,-3.811 l 17.303,17.303 17.304,-17.303 c 1.314,1.149 2.514,2.426 3.581,3.811 1.379,1.796 2.538,3.773 3.425,5.887 1.306,3.123 2.031,6.547 2.031,10.137 0,5.946 -1.983,11.437 -5.32,15.849 -1.329,1.759 -2.874,3.342 -4.595,4.72 l 4.689,4.688 c 1.686,-1.412 3.228,-2.99 4.604,-4.71 4.507,-5.634 7.206,-12.772 7.206,-20.547 -0.001,-5.441 -1.327,-10.568 -3.664,-15.089 z"
   id="path33"
   style="fill:#3a3a3a;fill-opacity:1" />
</g>
</svg>