<?xml version="1.0" encoding="utf-8"?>
<!-- Generator: Adobe Illustrator 16.0.4, SVG Export Plug-In . SVG Version: 6.00 Build 0)  -->
<!DOCTYPE svg PUBLIC "-//W3C//DTD SVG 1.1//EN" "http://www.w3.org/Graphics/SVG/1.1/DTD/svg11.dtd">
<svg version="1.1" id="Layer_1" xmlns="http://www.w3.org/2000/svg" xmlns:xlink="http://www.w3.org/1999/xlink" x="0px" y="0px"
	 width="319.378px" height="225.055px" viewBox="0 0 319.378 225.055" enable-background="new 0 0 319.378 225.055"
	 xml:space="preserve">
<g>
	<path fill="#3A3A3A" d="M287.649,28.646c-3.818-6.039-8.062-11.775-12.702-17.172l-14.998,15.007l-9.346,9.338
		c0.113,0.142,0.245,0.283,0.358,0.425c4.395,5.415,8.27,11.303,11.587,17.493l9.687-9.687
		c10.565,18.249,16.652,39.399,16.652,61.953c0,29.986-10.698,57.522-28.475,78.999c-4.499,5.424-9.47,10.447-14.819,15.039
		l15.008,15.014c5.293-4.654,10.244-9.688,14.81-15.051c21.557-25.332,34.589-58.135,34.589-94
		C310,77.553,301.787,51.044,287.649,28.646z"/>
	<path fill="#3A3A3A" d="M59.592,185.002c-17.781-21.477-28.479-49.012-28.479-78.999c0-22.554,6.086-43.704,16.651-61.953
		l9.687,9.687c3.317-6.19,7.192-12.078,11.587-17.493c0.113-0.142,0.236-0.283,0.354-0.425l-9.342-9.338L45.048,11.475
		c-4.636,5.396-8.879,11.133-12.692,17.172C18.213,51.044,10,77.553,10,106.004c0,35.866,13.032,68.668,34.59,94
		c4.564,5.363,9.516,10.391,14.809,15.051l15.008-15.014C69.057,195.45,64.086,190.426,59.592,185.002z"/>
	<path fill="#3A3A3A" d="M233.082,75.54c-2.543-6.067-5.879-11.823-9.896-17.134l-47.102,47.102l-14.932,14.932L160,121.588
		l-1.152-1.148l-14.933-14.932L96.813,58.406c-4.017,5.311-7.353,11.066-9.89,17.134c-0.279,0.681-0.534,1.36-0.795,2.041
		l42.863,42.858l14.923,14.923L160,151.448l16.085-16.085l14.923-14.923l42.867-42.858C233.611,76.9,233.355,76.221,233.082,75.54z"
		/>
	<path fill="#8A8A8A" d="M253.826,52.783c-3.327-6.432-7.277-12.48-11.805-18.061c-3.524-4.348-7.494-8.293-11.662-12.03
		c-1.492-1.333-2.915-2.741-4.479-3.988c-4.054-3.241-8.43-6.081-12.938-8.704L160,62.938L107.058,10
		c-4.508,2.623-8.884,5.463-12.938,8.704c-1.564,1.247-2.986,2.655-4.476,3.988c-4.172,3.732-8.141,7.683-11.671,12.03
		c-4.522,5.58-8.473,11.629-11.799,18.061c-7.49,14.497-11.747,30.937-11.747,48.382c0,24.931,8.656,47.82,23.106,65.884
		c4.413,5.516,9.356,10.576,14.762,15.104l15.036-15.031c-5.52-4.418-10.472-9.494-14.733-15.135
		C81.9,137.838,75.54,120.231,75.54,101.165c0-11.511,2.325-22.492,6.512-32.505c2.845-6.781,6.554-13.117,10.981-18.878
		c3.421-4.441,7.268-8.534,11.482-12.22L160,93.047l55.484-55.484c4.215,3.686,8.062,7.778,11.482,12.22
		c4.423,5.761,8.137,12.097,10.982,18.878c4.186,10.013,6.511,20.994,6.511,32.505c0,19.066-6.36,36.673-17.058,50.822
		c-4.263,5.641-9.215,10.717-14.734,15.135l15.036,15.031c5.405-4.527,10.349-9.588,14.762-15.104
		c14.45-18.064,23.106-40.954,23.106-65.884C265.572,83.72,261.32,67.28,253.826,52.783z"/>
</g>
</svg>
