<?xml version="1.0" encoding="UTF-8" standalone="no"?>
<!-- Generator: Adobe Illustrator 17.1.0, SVG Export Plug-In . SVG Version: 6.00 Build 0)  -->

<svg
   xmlns:dc="http://purl.org/dc/elements/1.1/"
   xmlns:cc="http://creativecommons.org/ns#"
   xmlns:rdf="http://www.w3.org/1999/02/22-rdf-syntax-ns#"
   xmlns:svg="http://www.w3.org/2000/svg"
   xmlns="http://www.w3.org/2000/svg"
   xmlns:sodipodi="http://sodipodi.sourceforge.net/DTD/sodipodi-0.dtd"
   xmlns:inkscape="http://www.inkscape.org/namespaces/inkscape"
   version="1.1"
   id="Layer_1"
   x="0px"
   y="0px"
   viewBox="0 0 198.8 76"
   enable-background="new 0 0 792 612"
   xml:space="preserve"
   inkscape:version="0.48.2 r9819"
   width="100%"
   height="100%"
   sodipodi:docname="MM_Footer-Logo.svg"><metadata
   id="metadata35"><rdf:RDF><cc:Work
       rdf:about=""><dc:format>image/svg+xml</dc:format><dc:type
         rdf:resource="http://purl.org/dc/dcmitype/StillImage" /></cc:Work></rdf:RDF></metadata><defs
   id="defs33" /><sodipodi:namedview
   pagecolor="#ffffff"
   bordercolor="#666666"
   borderopacity="1"
   objecttolerance="10"
   gridtolerance="10"
   guidetolerance="10"
   inkscape:pageopacity="0"
   inkscape:pageshadow="2"
   inkscape:window-width="640"
   inkscape:window-height="480"
   id="namedview31"
   showgrid="false"
   fit-margin-top="0"
   fit-margin-left="0"
   fit-margin-right="0"
   fit-margin-bottom="0"
   inkscape:zoom="0.38562092"
   inkscape:cx="98.7"
   inkscape:cy="38"
   inkscape:window-x="0"
   inkscape:window-y="0"
   inkscape:window-maximized="0"
   inkscape:current-layer="Layer_1" />
<path
   d="M 13.4,60.1 7.3,68.6 C 7.2,68.7 7.1,68.7 7,68.7 h 0 c -0.1,0 -0.2,0 -0.3,-0.1 L 0.6,60.1 v 15.3 c 0,0.2 -0.1,0.3 -0.3,0.3 C 0.1,75.7 0,75.6 0,75.4 V 59.2 c 0,-0.1 0.1,-0.3 0.3,-0.3 0,0 0,0 0.1,0 0.1,0 0.1,0 0.2,0.1 L 7,67.9 13.4,59 c 0,0 0.1,-0.1 0.2,-0.1 0,0 0,0 0.1,0 0.2,0 0.3,0.2 0.3,0.3 v 16.2 c 0,0.2 -0.1,0.3 -0.3,0.3 -0.1,0 -0.3,-0.1 -0.3,-0.3 V 60.1 z"
   id="path3"
   inkscape:connector-curvature="0"
   style="fill:#99cc99" />
<path
   d="m 33.8,71.1 h -8.4 l -1.6,4.3 c 0,0.1 -0.1,0.2 -0.3,0.2 0,0 -0.1,0 -0.1,0 -0.1,-0.1 -0.2,-0.2 -0.1,-0.4 l 6,-16.1 c 0,-0.1 0.2,-0.2 0.3,-0.2 0.1,0 0.2,0.1 0.3,0.2 l 6,16.1 c 0.1,0.2 0,0.3 -0.2,0.4 0,0 -0.1,0 -0.1,0 -0.1,0 -0.2,-0.1 -0.3,-0.2 l -1.5,-4.3 z m -8.2,-0.6 h 7.9 L 29.5,60 25.6,70.5 z"
   id="path5"
   inkscape:connector-curvature="0"
   style="fill:#99cc99" />
<path
   d="m 51.9,67.7 c -0.1,0 -0.3,-0.1 -0.3,-0.3 0,-0.2 0.2,-0.3 0.3,-0.3 h 5.4 0 c 0.2,0 0.3,0.1 0.3,0.3 v 6.1 c 0,0 0,0 0,0.1 v 0 c 0,0.1 0,0.1 -0.1,0.2 -1.5,1.2 -3.4,1.9 -5.5,1.9 -4.9,0 -8.9,-3.9 -8.9,-8.7 0,-4.8 4,-8.6 8.9,-8.6 2.1,0 4,0.7 5.5,1.9 0.2,0.1 0.2,0.3 0.1,0.5 -0.1,0.1 -0.3,0.1 -0.5,0 C 55.7,59.7 53.9,59 52,59 c -4.6,0 -8.3,3.6 -8.3,8 0,4.5 3.7,8.1 8.3,8.1 1.9,0 3.6,-0.6 5,-1.7 v -5.7 h -5.1 z"
   id="path7"
   inkscape:connector-curvature="0"
   style="fill:#99cc99" />
<path
   d="m 68.4,75.7 0,0 C 68.2,75.7 68,75.6 68,75.4 V 59.2 c 0,-0.2 0.1,-0.3 0.3,-0.3 0.2,0 0.3,0.1 0.3,0.3 v 15.9 h 8.7 c 0.2,0 0.3,0.1 0.3,0.3 0,0.2 -0.1,0.3 -0.3,0.3 h -8.9 z"
   id="path9"
   inkscape:connector-curvature="0"
   style="fill:#99cc99" />
<path
   d="m 86.3,59.2 c 0,-0.2 0.1,-0.3 0.3,-0.3 0.1,0 0.3,0.1 0.3,0.3 v 16.2 c 0,0.2 -0.1,0.3 -0.3,0.3 -0.2,0 -0.3,-0.1 -0.3,-0.3 V 59.2 z"
   id="path11"
   inkscape:connector-curvature="0"
   style="fill:#99cc99" />
<path
   d="m 105.1,58.6 c 4.5,0 8.2,3.9 8.2,8.7 0,4.8 -3.7,8.7 -8.2,8.7 -4.5,0 -8.2,-3.9 -8.2,-8.7 0.1,-4.8 3.7,-8.7 8.2,-8.7 z m 0,16.7 c 4.1,0 7.5,-3.6 7.5,-8 0,-4.5 -3.4,-8 -7.5,-8 -4.1,0 -7.5,3.6 -7.5,8 0,4.4 3.4,8 7.5,8 z"
   id="path13"
   inkscape:connector-curvature="0"
   style="fill:#99cc99" />
<path
   d="m 136.4,60.1 -6.1,8.5 c -0.1,0.1 -0.2,0.1 -0.3,0.1 h 0 c -0.1,0 -0.2,0 -0.3,-0.1 l -6.1,-8.5 v 15.3 c 0,0.2 -0.1,0.3 -0.3,0.3 -0.2,0 -0.3,-0.1 -0.3,-0.3 V 59.2 c 0,-0.1 0.1,-0.3 0.3,-0.3 0,0 0,0 0.1,0 0.1,0 0.1,0 0.2,0.1 l 6.4,8.9 6.4,-8.9 c 0,0 0.1,-0.1 0.2,-0.1 0,0 0,0 0.1,0 0.2,0 0.3,0.2 0.3,0.3 v 16.2 c 0,0.2 -0.1,0.3 -0.3,0.3 -0.1,0 -0.3,-0.1 -0.3,-0.3 V 60.1 z"
   id="path15"
   inkscape:connector-curvature="0"
   style="fill:#99cc99" />
<path
   d="m 156.7,71.1 h -8.4 l -1.6,4.3 c 0,0.1 -0.1,0.2 -0.3,0.2 0,0 -0.1,0 -0.1,0 -0.1,-0.1 -0.2,-0.2 -0.1,-0.4 l 6,-16.1 c 0,-0.1 0.2,-0.2 0.3,-0.2 0.1,0 0.2,0.1 0.3,0.2 l 6,16.1 c 0.1,0.2 0,0.3 -0.2,0.4 0,0 -0.1,0 -0.1,0 -0.1,0 -0.2,-0.1 -0.3,-0.2 l -1.5,-4.3 z m -8.1,-0.6 h 7.9 l -4,-10.5 -3.9,10.5 z"
   id="path17"
   inkscape:connector-curvature="0"
   style="fill:#99cc99" />
<path
   d="m 167.5,59.2 c 0,-0.2 0.1,-0.3 0.3,-0.3 h 0 3.2 c 4.7,0 8.4,3.8 8.4,8.4 0,4.7 -3.7,8.4 -8.4,8.4 h -3.2 0 c -0.2,0 -0.3,-0.1 -0.3,-0.3 V 59.2 z m 3.6,15.9 c 4.3,0 7.8,-3.5 7.8,-7.8 0,-4.3 -3.5,-7.8 -7.8,-7.8 h -2.9 v 15.6 h 2.9 z"
   id="path19"
   inkscape:connector-curvature="0"
   style="fill:#99cc99" />
<path
   d="m 189.6,75.7 0,0 c -0.2,0 -0.3,-0.1 -0.3,-0.3 V 59.2 c 0,-0.1 0.1,-0.3 0.3,-0.3 h 0 0 8.9 c 0.2,0 0.3,0.1 0.3,0.3 0,0.2 -0.1,0.3 -0.3,0.3 h -8.6 V 67 h 7.6 c 0.2,0 0.3,0.1 0.3,0.3 0,0.2 -0.1,0.3 -0.3,0.3 h -7.6 v 7.5 h 8.6 c 0.2,0 0.3,0.1 0.3,0.3 0,0.2 -0.1,0.3 -0.3,0.3 h -8.9 l 0,0 z"
   id="path21"
   inkscape:connector-curvature="0"
   style="fill:#99cc99" />
<path
   d="M 125.8,3.9 C 125,2.7 124.1,1.5 123.2,0.4 l -3.1,3.1 -1.9,1.9 c 0,0 0.1,0.1 0.1,0.1 0.9,1.1 1.7,2.3 2.4,3.6 l 2,-2 c 2.2,3.8 3.4,8.1 3.4,12.8 0,6.2 -2.2,11.9 -5.9,16.3 -0.9,1.1 -2,2.2 -3.1,3.1 l 3.1,3.1 c 1.1,-1 2.1,-2 3.1,-3.1 4.5,-5.2 7.1,-12 7.1,-19.4 0,-5.9 -1.7,-11.4 -4.6,-16 z"
   id="path23"
   inkscape:connector-curvature="0"
   style="fill:#9a9a9a" />
<path
   d="M 78.7,36.2 C 75,31.8 72.8,26.1 72.8,19.9 c 0,-4.7 1.3,-9 3.4,-12.8 l 2,2 c 0.7,-1.3 1.5,-2.5 2.4,-3.6 0,0 0,-0.1 0.1,-0.1 L 78.8,3.5 75.7,0.4 c -1,1.1 -1.8,2.3 -2.6,3.5 -2.9,4.6 -4.6,10.1 -4.6,16 0,7.4 2.7,14.2 7.1,19.4 0.9,1.1 2,2.1 3.1,3.1 l 3.1,-3.1 c -1.2,-1 -2.2,-2 -3.1,-3.1 z"
   id="path25"
   inkscape:connector-curvature="0"
   style="fill:#9a9a9a" />
<path
   d="m 114.5,13.6 c -0.5,-1.3 -1.2,-2.4 -2,-3.5 l -9.7,9.7 -3.1,3.1 -0.2,0.2 -0.2,-0.2 -3.1,-3.1 -9.7,-9.7 c -0.8,1.1 -1.5,2.3 -2,3.5 -0.1,0.1 -0.1,0.3 -0.2,0.4 l 8.9,8.9 3.1,3.1 3.3,3.3 3.3,-3.3 3.1,-3.1 8.9,-8.9 c -0.3,-0.2 -0.3,-0.3 -0.4,-0.4 z"
   id="path27"
   inkscape:connector-curvature="0"
   style="fill:#9a9a9a" />
<path
   d="M 118.8,8.9 C 118.1,7.6 117.3,6.3 116.4,5.2 115.7,4.3 114.9,3.5 114,2.7 113.7,2.4 113.4,2.1 113.1,1.9 112.3,1.2 111.4,0.6 110.4,0.1 L 99.4,11 88.5,0 c -0.9,0.5 -1.8,1.1 -2.7,1.8 -0.3,0.3 -0.6,0.5 -0.9,0.8 -0.9,0.8 -1.7,1.6 -2.4,2.5 -0.9,1.2 -1.8,2.4 -2.4,3.7 -1.5,3 -2.4,6.4 -2.4,10 0,5.2 1.8,9.9 4.8,13.6 0.9,1.1 1.9,2.2 3.1,3.1 l 3.1,-3.1 c -1.1,-0.9 -2.2,-2 -3,-3.1 -2.2,-2.9 -3.5,-6.6 -3.5,-10.5 0,-2.4 0.5,-4.6 1.3,-6.7 0.6,-1.4 1.4,-2.7 2.3,-3.9 0.7,-0.9 1.5,-1.8 2.4,-2.5 L 99.7,17.2 111.2,5.7 c 0.9,0.8 1.7,1.6 2.4,2.5 0.9,1.2 1.7,2.5 2.3,3.9 0.9,2.1 1.3,4.3 1.3,6.7 0,3.9 -1.3,7.6 -3.5,10.5 -0.9,1.2 -1.9,2.2 -3,3.1 l 3.1,3.1 c 1.1,-0.9 2.1,-2 3.1,-3.1 3,-3.7 4.8,-8.5 4.8,-13.6 -0.5,-3.5 -1.4,-6.9 -2.9,-9.9 z"
   id="path29"
   inkscape:connector-curvature="0"
   style="opacity:0.5;fill:#9a9a9a" />
</svg>