<?xml version="1.0" encoding="UTF-8" standalone="no"?>
<!-- Generator: Adobe Illustrator 17.1.0, SVG Export Plug-In . SVG Version: 6.00 Build 0)  -->

<svg
   xmlns:dc="http://purl.org/dc/elements/1.1/"
   xmlns:cc="http://creativecommons.org/ns#"
   xmlns:rdf="http://www.w3.org/1999/02/22-rdf-syntax-ns#"
   xmlns:svg="http://www.w3.org/2000/svg"
   xmlns="http://www.w3.org/2000/svg"
   xmlns:sodipodi="http://sodipodi.sourceforge.net/DTD/sodipodi-0.dtd"
   xmlns:inkscape="http://www.inkscape.org/namespaces/inkscape"
   version="1.1"
   id="Layer_1"
   x="0px"
   y="0px"
   viewBox="0 0 63.904175 44.299998"
   enable-background="new 0 0 792 612"
   xml:space="preserve"
   inkscape:version="0.48.2 r9819"
   width="100%"
   height="100%"
   sodipodi:docname="MM_Nav-Logo.svg"><metadata
   id="metadata15"><rdf:RDF><cc:Work
       rdf:about=""><dc:format>image/svg+xml</dc:format><dc:type
         rdf:resource="http://purl.org/dc/dcmitype/StillImage" /></cc:Work></rdf:RDF></metadata><defs
   id="defs13" /><sodipodi:namedview
   pagecolor="#ffffff"
   bordercolor="#666666"
   borderopacity="1"
   objecttolerance="10"
   gridtolerance="10"
   guidetolerance="10"
   inkscape:pageopacity="0"
   inkscape:pageshadow="2"
   inkscape:window-width="998"
   inkscape:window-height="666"
   id="namedview11"
   showgrid="false"
   fit-margin-top="1"
   fit-margin-left="1"
   fit-margin-right="1"
   fit-margin-bottom="1"
   inkscape:zoom="3.0849673"
   inkscape:cx="12.964407"
   inkscape:cy="32.339423"
   inkscape:window-x="0"
   inkscape:window-y="0"
   inkscape:window-maximized="0"
   inkscape:current-layer="Layer_1" />
<path
   d="m 58.3,4.7999991 c -0.8,-1.2 -1.7,-2.4 -2.6,-3.5 l -3.1,3.1 -1.9,1.9 c 0,0 0.1,0.1 0.1,0.1 0.9,1.1 1.7,2.3 2.4,3.5999995 l 2,-1.9999995 c 2.2,3.7999999 3.4,8.0999999 3.4,12.7999999 0,6.2 -2.2,11.9 -5.9,16.3 -0.9,1.1 -2,2.2 -3.1,3.1 l 3.1,3.1 c 1.1,-1 2.1,-2 3.1,-3.1 4.5,-5.2 7.1,-12 7.1,-19.4 0.1,-5.9 -1.6,-11.4000004 -4.6,-15.9999999 z"
   id="path3"
   inkscape:connector-curvature="0"
   style="fill:#9a9a9a" />
<path
   d="m 11.2,37.099999 c -3.6999998,-4.4 -5.8999998,-10.1 -5.8999998,-16.3 0,-4.7 1.3,-9 3.4,-12.7999999 L 10.7,9.9999986 c 0.7,-1.2999995 1.5,-2.4999995 2.4,-3.5999995 0,0 0,-0.1 0.1,-0.1 l -1.9,-1.9 -3.0999998,-3.1 c -1,1.1 -1.8,2.3 -2.6,3.5 C 2.7000002,9.3999986 1,14.899999 1,20.799999 c 0,7.4 2.7000002,14.2 7.1000002,19.4 0.8999998,1.1 1.9999998,2.1 3.0999998,3.1 l 3.1,-3.1 c -1.1,-0.9 -2.2,-2 -3.1,-3.1 z"
   id="path5"
   inkscape:connector-curvature="0"
   style="fill:#9a9a9a" />
<path
   d="m 47.1,14.499999 c -0.5,-1.3 -1.2,-2.4 -2,-3.5 l -9.7,9.7 -3.1,3.1 -0.2,0.2 -0.2,-0.2 -3.1,-3.1 -9.7,-9.7 c -0.8,1.1 -1.5,2.3 -2,3.5 -0.1,0.1 -0.1,0.3 -0.2,0.4 l 8.9,8.9 3.1,3.1 3.3,3.3 3.3,-3.3 3.1,-3.1 8.9,-8.9 c -0.3,-0.1 -0.4,-0.3 -0.4,-0.4 z"
   id="path7"
   inkscape:connector-curvature="0"
   style="fill:#9a9a9a" />
<path
   d="M 51.3,9.7999986 C 50.6,8.4999991 49.8,7.1999991 48.9,6.0999991 c -0.7,-0.9 -1.5,-1.7 -2.4,-2.5 -0.3,-0.3 -0.6,-0.6 -0.9,-0.8 -0.8,-0.7 -1.7,-1.3 -2.7,-1.79999996 L 32,11.899999 21.1,0.99999914 C 20.2,1.4999991 19.3,2.0999991 18.4,2.7999991 c -0.3,0.3 -0.6,0.5 -0.9,0.8 -0.9,0.8 -1.7,1.6 -2.4,2.5 -0.9,1.2 -1.8,2.4 -2.4,3.6999995 -1.5,3.0000004 -2.4,6.4000004 -2.4,10.0000004 0,5.2 1.8,9.9 4.8,13.6 0.9,1.1 1.9,2.2 3.1,3.1 l 3.1,-3.1 c -1.1,-0.9 -2.2,-2 -3,-3.1 -2.2,-2.9 -3.5,-6.6 -3.5,-10.5 0,-2.4 0.5,-4.6 1.3,-6.7 0.6,-1.4 1.4,-2.7 2.3,-3.9000004 0.7,-0.8999995 1.5,-1.7999995 2.4,-2.4999995 L 32.3,18.199999 43.8,6.6999991 c 0.9,0.8 1.7,1.6 2.4,2.4999995 0.9,1.2000004 1.7,2.5000004 2.3,3.9000004 0.9,2.1 1.3,4.3 1.3,6.7 0,3.9 -1.3,7.6 -3.5,10.5 -0.9,1.2 -1.9,2.2 -3,3.1 l 3.1,3.1 c 1.1,-0.9 2.1,-2 3.1,-3.1 3,-3.7 4.8,-8.5 4.8,-13.6 -0.5,-3.6 -1.4,-7 -3,-10.0000004 z"
   id="path9"
   inkscape:connector-curvature="0"
   style="opacity:0.5;fill:#9a9a9a" />
</svg>