<?xml version="1.0" encoding="UTF-8" standalone="no"?>
<svg
   xmlns:dc="http://purl.org/dc/elements/1.1/"
   xmlns:cc="http://creativecommons.org/ns#"
   xmlns:rdf="http://www.w3.org/1999/02/22-rdf-syntax-ns#"
   xmlns:svg="http://www.w3.org/2000/svg"
   xmlns="http://www.w3.org/2000/svg"
   xmlns:sodipodi="http://sodipodi.sourceforge.net/DTD/sodipodi-0.dtd"
   xmlns:inkscape="http://www.inkscape.org/namespaces/inkscape"
   version="1.1"
   x="0px"
   y="0px"
   width="90"
   height="90"
   viewBox="0 0 90 90"
   enable-background="new 0 0 100 100"
   xml:space="preserve"
   id="svg2"
   inkscape:version="0.48.2 r9819"
   sodipodi:docname="noun_project_7294.svg"><metadata
   id="metadata18"><rdf:RDF><cc:Work
       rdf:about=""><dc:format>image/svg+xml</dc:format><dc:type
         rdf:resource="http://purl.org/dc/dcmitype/StillImage" /></cc:Work></rdf:RDF></metadata><defs
   id="defs16" /><sodipodi:namedview
   pagecolor="#ffffff"
   bordercolor="#666666"
   borderopacity="1"
   objecttolerance="10"
   gridtolerance="10"
   guidetolerance="10"
   inkscape:pageopacity="0"
   inkscape:pageshadow="2"
   inkscape:window-width="640"
   inkscape:window-height="480"
   id="namedview14"
   showgrid="false"
   fit-margin-top="0"
   fit-margin-left="0"
   fit-margin-right="0"
   fit-margin-bottom="0"
   inkscape:zoom="2.36"
   inkscape:cx="45"
   inkscape:cy="45"
   inkscape:window-x="0"
   inkscape:window-y="0"
   inkscape:window-maximized="0"
   inkscape:current-layer="svg2" />
<g
   id="Captions"
   transform="translate(-5,-5)">
</g>
<g
   id="Your_Icon"
   transform="translate(-5,-5)">
	<g
   id="g6">
		<g
   id="g8">
			<path
   d="M 50,95 C 25.187,95 5,74.813 5,50 5,25.187 25.187,5 50,5 74.813,5 95,25.187 95,50 95,74.813 74.813,95 50,95 z M 50,15 C 30.701,15 15,30.701 15,50 15,69.299 30.701,85 50,85 69.299,85 85,69.299 85,50 85,30.701 69.299,15 50,15 z"
   id="path10"
   inkscape:connector-curvature="0" />
		</g>
		<polygon
   points="33.536,26.464 26.464,33.536 42.929,50 26.464,66.465 33.536,73.535 50,57.07 66.465,73.535 73.535,66.465 57.07,50 73.535,33.536 66.465,26.464 50,42.929 "
   id="polygon12" />
	</g>
</g>
</svg>