<?xml version="1.0" encoding="UTF-8" standalone="no"?>
<!-- Created with Inkscape (http://www.inkscape.org/) -->

<svg
   xmlns:dc="http://purl.org/dc/elements/1.1/"
   xmlns:cc="http://creativecommons.org/ns#"
   xmlns:rdf="http://www.w3.org/1999/02/22-rdf-syntax-ns#"
   xmlns:svg="http://www.w3.org/2000/svg"
   xmlns="http://www.w3.org/2000/svg"
   version="1.1"
   width="164.6225"
   height="131.62587"
   id="svg2"
   xml:space="preserve"><metadata
     id="metadata8"><rdf:RDF><cc:Work
         rdf:about=""><dc:format>image/svg+xml</dc:format><dc:type
           rdf:resource="http://purl.org/dc/dcmitype/StillImage" /><dc:title></dc:title></cc:Work></rdf:RDF></metadata><defs
     id="defs6"><clipPath
       id="clipPath16"><path
         d="M 0,612 792,612 792,0 0,0 0,612 z"
         id="path18" /></clipPath></defs><g
     transform="matrix(1.25,0,0,-1.25,-730.67338,538.7405)"
     id="g10"><g
       transform="translate(283.7227,392.6514)"
       id="g20"><path
         d="m 0,0 c 1.52,-32.794 -33.252,-53.53 -63.062,-36.892 8.609,0.25 15.562,2.161 20.625,5.95 -6.284,1.65 -11.391,4.47 -13.085,10.713 1.342,-0.739 4.56,-0.479 5.942,0 -6.216,2.24 -10.488,6.435 -11.104,14.276 2.061,-0.459 3.648,-1.377 5.953,-1.582 -3.741,2.222 -8.102,12.48 -3.965,19.033 7.407,-7.261 15.395,-13.95 29.35,-14.673 -2.417,15.376 16.143,22.5 25.381,13.086 3.692,0.405 6.069,2.139 9.121,3.179 C 3.862,10.019 2.061,7.46 -0.391,5.546 2.627,5.697 4.625,6.879 7.144,7.533 5.146,4.638 2.593,2.299 0,0 m 24.697,-50.626 0,72.632 c 0,9.023 -7.319,16.333 -16.343,16.333 l -72.622,0 c -9.028,0 -16.342,-7.31 -16.342,-16.333 l 0,-72.632 c 0,-9.023 7.314,-16.332 16.342,-16.332 l 72.622,0 c 9.024,0 16.343,7.309 16.343,16.332"
         id="path22"
         style="fill:#acdac2;fill-opacity:1;fill-rule:nonzero;stroke:none" /></g><g
       transform="translate(158.7715,393.6172)"
       id="g24"><path
         d="m 0,0 -7.002,0 c 0,0 -4.233,-0.122 -4.233,-4.351 l 0,-4.834 11.235,0 0,-12.202 -11.235,0 0,-36.494 -15.83,0 0,36.373 -9.908,0 0,12.445 10.03,0 0,5.318 c 0,0 -1.094,16.069 13.896,16.069 L 0,12.324 0,0 z m 22.294,-51.592 0,72.632 c 0,9.023 -7.314,16.333 -16.337,16.333 l -72.628,0 c -9.022,0 -16.337,-7.31 -16.337,-16.333 l 0,-72.632 c 0,-9.023 7.315,-16.332 16.337,-16.332 l 72.628,0 c 9.023,0 16.337,7.309 16.337,16.332"
         id="path26"
         style="fill:#acdac2;fill-opacity:1;fill-rule:nonzero;stroke:none" /></g><g
       transform="translate(418.209,346.293)"
       id="g28"><path
         d="m 0,0 -16.709,0 0,26.323 c 0,0 0.416,5.088 -5.854,5.088 -6.264,0 -6.406,-4.253 -6.406,-4.253 l 0,-27.158 -17.412,0 0,44.297 14.765,0 0,-6.27 c 0,0 5.709,7.383 14.63,7.383 0,0 16.986,-0.42 16.986,-14.765 L 0,0 z m -61.01,48.223 c -5.073,0 -9.189,3.554 -9.189,7.939 0,4.385 4.116,7.94 9.189,7.94 5.078,0 9.199,-3.555 9.199,-7.94 0,-4.385 -4.121,-7.939 -9.199,-7.939 M -52.367,0 l -17.275,0 0,44.292 17.275,0 0,-44.292 z m 53.584,84.697 -72.627,0 c -9.024,0 -16.338,-7.309 -16.338,-16.333 l 0,-72.632 c 0,-9.023 7.314,-16.332 16.338,-16.332 l 72.627,0 c 9.023,0 16.338,7.309 16.338,16.332 l 0,72.632 c 0,9.024 -7.315,16.333 -16.338,16.333"
         id="path30"
         style="fill:#acdac2;fill-opacity:1;fill-rule:nonzero;stroke:none" /></g><g
       transform="translate(650.3867,335.8477)"
       id="g32"><path
         d="m 0,0 c -18.637,0 -33.744,15.107 -33.744,33.744 0,18.637 15.107,33.744 33.744,33.744 18.637,0 33.744,-15.107 33.744,-33.744 C 33.744,15.107 18.637,0 0,0 m 64.387,77.644 -128.772,0 c -0.804,0 -1.463,-0.659 -1.463,-1.463 l 3.502,-84.872 c 0,-0.805 0.658,-1.465 1.463,-1.465 l 122.918,0 c 0.805,0 1.463,0.66 1.463,1.465 l 2.352,84.872 c 0,0.804 -0.659,1.463 -1.463,1.463"
         id="path34"
         style="fill:#acdac2;fill-opacity:1;fill-rule:nonzero;stroke:none" /></g><g
       transform="translate(712.4219,422.1074)"
       id="g36"><path
         d="m 0,0 c 0,0.806 -0.658,1.464 -1.463,1.464 l -81.121,0 c -0.805,0 -1.463,0.658 -1.463,1.463 l 0,4.495 c 0,0.804 -0.658,1.463 -1.463,1.463 l -26.318,0 c -0.805,0 -1.463,-0.659 -1.463,-1.463 l 0,-4.495 c 0,-0.805 -0.66,-1.463 -1.465,-1.463 l -8.162,0 c -0.805,0 -1.463,-0.658 -1.463,-1.464 l 0,-4.493 L 0,-4.493 0,0 z"
         id="path38"
         style="fill:#acdac2;fill-opacity:1;fill-rule:nonzero;stroke:none" /></g><g
       transform="translate(666.1035,373.9434)"
       id="g40"><path
         d="m 0,0 0,18.532 c 0,0.805 -0.658,1.463 -1.463,1.463 l -28.508,0 c -0.804,0 -1.463,-0.658 -1.463,-1.463 l 0,-18.532 c 0,-0.807 -0.658,-1.465 -1.462,-1.465 l -8.17,0 c -0.805,0 -1.03,-0.494 -0.498,-1.098 l 10e-4,-10e-4 12.44,-14.143 12.441,-14.145 c 0.53,-0.603 1.401,-0.603 1.932,0 l 24.881,28.288 c 0.533,0.605 0.308,1.099 -0.496,1.099 l -8.17,0 C 0.66,-1.465 0,-0.807 0,0"
         id="path42"
         style="fill:#acdac2;fill-opacity:1;fill-rule:nonzero;stroke:none" /></g><g
       transform="translate(544.9727,371.0195)"
       id="g44"><path
         d="m 0,0 -22.93,0 c 0.129,-3.158 1.227,-5.371 3.293,-6.643 1.258,-0.789 2.77,-1.185 4.539,-1.185 1.875,0 3.399,0.482 4.571,1.445 0.638,0.52 1.203,1.242 1.693,2.166 l 8.404,0 c -0.22,-1.867 -1.238,-3.765 -3.05,-5.689 -2.821,-3.063 -6.77,-4.592 -11.844,-4.592 -4.192,0 -7.887,1.291 -11.09,3.873 -3.203,2.582 -4.805,6.783 -4.805,12.604 0,5.453 1.446,9.635 4.338,12.545 2.891,2.91 6.643,4.366 11.258,4.366 2.74,0 5.207,-0.493 7.404,-1.476 2.196,-0.983 4.01,-2.536 5.44,-4.657 1.289,-1.87 2.125,-4.04 2.508,-6.509 C -0.049,4.802 0.041,2.719 0,0 m -37.619,-7.365 c -0.805,-1.328 -1.811,-2.446 -3.016,-3.35 -1.359,-1.041 -2.963,-1.752 -4.81,-2.139 -1.848,-0.384 -3.854,-0.576 -6.016,-0.576 l -19.184,0 0,42.573 20.575,0 c 5.191,-0.078 8.869,-1.588 11.035,-4.535 1.301,-1.81 1.953,-3.976 1.953,-6.499 0,-2.599 -0.658,-4.688 -1.973,-6.267 -0.734,-0.886 -1.816,-1.695 -3.246,-2.426 2.172,-0.79 3.813,-2.041 4.918,-3.755 1.106,-1.714 1.658,-3.794 1.658,-6.239 0,-2.522 -0.63,-4.785 -1.894,-6.787 m 10.531,34.371 20.535,0 0,-4.391 -20.535,0 0,4.391 z m 28.084,32.965 -72.627,0 c -9.023,0 -16.338,-7.31 -16.338,-16.333 l 0,-72.632 c 0,-9.024 7.315,-16.332 16.338,-16.332 l 72.627,0 c 9.024,0 16.338,7.308 16.338,16.332 l 0,72.632 c 0,9.023 -7.314,16.333 -16.338,16.333"
         id="path46"
         style="fill:#acdac2;fill-opacity:1;fill-rule:nonzero;stroke:none" /></g><g
       transform="translate(497.5527,375.6123)"
       id="g48"><path
         d="m 0,0 c -1.008,0.462 -2.426,0.702 -4.254,0.722 l -10.478,0 0,-11.352 10.336,0 c 1.845,0 3.283,0.25 4.31,0.752 1.865,0.924 2.799,2.695 2.799,5.315 C 2.713,-2.35 1.809,-0.828 0,0"
         id="path50"
         style="fill:#acdac2;fill-opacity:1;fill-rule:nonzero;stroke:none" /></g><g
       transform="translate(497.6699,384.4355)"
       id="g52"><path
         d="m 0,0 c 1.152,0.703 1.729,1.95 1.729,3.74 0,1.984 -0.762,3.293 -2.286,3.929 -1.316,0.442 -2.992,0.664 -5.031,0.664 l -9.262,0 0,-9.388 10.348,0 c 1.848,0 3.35,0.352 4.502,1.055"
         id="path54"
         style="fill:#acdac2;fill-opacity:1;fill-rule:nonzero;stroke:none" /></g><g
       transform="translate(529.3516,383.1211)"
       id="g56"><path
         d="m 0,0 c -2.113,0 -3.75,-0.6 -4.912,-1.799 -1.164,-1.199 -1.895,-2.823 -2.193,-4.873 l 14.181,0 C 6.926,-4.486 6.195,-2.828 4.883,-1.697 3.57,-0.565 1.943,0 0,0"
         id="path58"
         style="fill:#acdac2;fill-opacity:1;fill-rule:nonzero;stroke:none" /></g><g
       transform="translate(90.4697,191.7031)"
       id="g60"><path
         d="m 0,0 -8.433,94.604 92.755,0 L 75.89,0 37.842,-10.695"
         id="path62"
         style="fill:#acdac2;fill-opacity:1;fill-rule:nonzero;stroke:none" /></g><g
       transform="translate(128.415,189.2344)"
       id="g64"><path
         d="m 0,0 30.644,8.434 7.198,81.03 -37.842,0"
         id="path66"
         style="fill:#c3e4d1;fill-opacity:1;fill-rule:nonzero;stroke:none" /></g><g
       transform="translate(128.415,213.2969)"
       id="g68"><path
         d="m 0,0 -0.206,0 -12.957,3.498 -0.822,9.254 -6.17,0 -5.348,0 1.44,-18.305 23.857,-6.58 0.206,0 L 0,0 z m 0,30.233 -15.425,0 -1.028,11.928 16.453,0 0,11.518 -0.206,0 -28.999,0 0.206,-3.086 2.879,-32.083 26.12,0 0,11.723 z"
         id="path70"
         style="fill:#ebeced;fill-opacity:1;fill-rule:nonzero;stroke:none" /></g><g
       transform="translate(128.209,266.9756)"
       id="g72"><path
         d="m 0,0 0,-7.199 0,-4.319 28.176,0 0.206,2.469 0.617,5.963 L 29.204,0 0,0 z m 0,-23.445 0,-11.724 14.396,0 L 12.957,-50.181 0,-53.679 l 0,-12.133 23.857,6.581 0.206,2.056 2.673,30.645 0.411,3.085 -3.29,0 -23.857,0 z"
         id="path74"
         style="fill:#ffffff;fill-opacity:1;fill-rule:nonzero;stroke:none" /></g></g></svg>