<?xml version="1.0" encoding="UTF-8" standalone="no"?>
<!-- Created with Inkscape (http://www.inkscape.org/) -->

<svg
   xmlns:dc="http://purl.org/dc/elements/1.1/"
   xmlns:cc="http://creativecommons.org/ns#"
   xmlns:rdf="http://www.w3.org/1999/02/22-rdf-syntax-ns#"
   xmlns:svg="http://www.w3.org/2000/svg"
   xmlns="http://www.w3.org/2000/svg"
   version="1.2"
   width="92.754997"
   height="105.299"
   viewBox="-75.764 -181.008 92.754997 105.299"
   id="svg3059"
   xml:space="preserve"
   style="overflow:visible"><metadata
   id="metadata3093"><rdf:RDF><cc:Work
       rdf:about=""><dc:format>image/svg+xml</dc:format><dc:type
         rdf:resource="http://purl.org/dc/dcmitype/StillImage" /><dc:title></dc:title></cc:Work></rdf:RDF></metadata>
<defs
   id="defs3061">
</defs>
<path
   d="m 150.619,-236.726 v -72.632 c 0,-9.023 -7.319,-16.333 -16.343,-16.333 H 61.654 c -9.028,0 -16.343,7.31 -16.343,16.333 v 72.632 c 0,9.023 7.314,16.332 16.343,16.332 h 72.622 c 9.024,0 16.343,-7.309 16.343,-16.332 z m -24.697,-50.626 c 1.52,32.794 -33.252,53.53 -63.062,36.892 8.608,-0.25 15.562,-2.16 20.625,-5.949 -6.284,-1.65 -11.392,-4.471 -13.086,-10.713 1.343,0.738 4.561,0.479 5.942,0 -6.216,-2.24 -10.488,-6.436 -11.104,-14.276 2.061,0.459 3.647,1.377 5.952,1.582 -3.74,-2.222 -8.102,-12.48 -3.965,-19.033 7.407,7.261 15.396,13.95 29.351,14.673 -2.417,-15.376 16.143,-22.5 25.381,-13.086 3.691,-0.405 6.069,-2.139 9.121,-3.179 -1.294,3.071 -3.096,5.63 -5.547,7.544 3.018,-0.151 5.016,-1.333 7.534,-1.987 -1.996,2.894 -4.549,5.233 -7.142,7.532 z"
   id="path3063"
   style="fill:#aadac1" />
<path
   d="m 23.265,-236.726 v -72.632 c 0,-9.023 -7.313,-16.333 -16.337,-16.333 H -65.7 c -9.023,0 -16.337,7.31 -16.337,16.333 v 72.632 c 0,9.023 7.314,16.332 16.337,16.332 H 6.928 c 9.023,0 16.337,-7.309 16.337,-16.332 z M 0.971,-288.318 h -7.002 c 0,0 -4.233,0.122 -4.233,4.351 v 4.834 H 0.971 v 12.202 h -11.236 v 36.494 h -15.83 v -36.373 h -9.907 v -12.445 h 10.029 v -5.318 c 0,0 -1.094,-16.069 13.896,-16.069 H 0.97 v 12.324 z"
   id="path3065"
   style="fill:#aadac1" />
<path
   d="m 261.625,-325.691 h -72.627 c -9.023,0 -16.338,7.31 -16.338,16.333 v 72.632 c 0,9.023 7.314,16.332 16.338,16.332 h 72.627 c 9.023,0 16.338,-7.309 16.338,-16.332 v -72.632 c 0,-9.023 -7.314,-16.333 -16.338,-16.333 z m -53.584,84.697 h -17.275 v -44.292 h 17.275 v 44.292 z m -8.642,-48.222 c -5.073,0 -9.189,-3.555 -9.189,-7.939 0,-4.384 4.116,-7.939 9.189,-7.939 5.078,0 9.199,3.555 9.199,7.939 0,4.384 -4.121,7.939 -9.199,7.939 z m 61.009,48.222 h -16.709 v -26.323 c 0,0 0.416,-5.088 -5.854,-5.088 -6.265,0 -6.406,4.253 -6.406,4.253 v 27.158 h -17.412 v -44.297 h 14.765 v 6.27 c 0,0 5.709,-7.383 14.63,-7.383 0,0 16.986,0.42 16.986,14.766 v 30.644 z"
   id="path3067"
   style="fill:#aadac1" />
<path
   d="M 556.973,-308.192 H 428.201 c -0.805,0 -1.463,0.658 -1.463,1.463 l 3.502,84.872 c 0,0.805 0.658,1.465 1.463,1.465 h 122.918 c 0.805,0 1.463,-0.66 1.463,-1.465 l 2.352,-84.872 c 0,-0.805 -0.659,-1.463 -1.463,-1.463 z m -64.387,77.644 c -18.637,0 -33.744,-15.107 -33.744,-33.744 0,-18.637 15.107,-33.744 33.744,-33.744 18.637,0 33.744,15.107 33.744,33.744 0,18.637 -15.107,33.744 -33.744,33.744 z"
   id="path3069"
   style="fill:#aadac1" />
<path
   d="m 554.621,-316.808 c 0,-0.806 -0.658,-1.464 -1.463,-1.464 h -81.121 c -0.805,0 -1.463,-0.658 -1.463,-1.463 v -4.495 c 0,-0.804 -0.658,-1.463 -1.463,-1.463 h -26.318 c -0.805,0 -1.463,0.659 -1.463,1.463 v 4.495 c 0,0.805 -0.66,1.463 -1.465,1.463 h -8.162 c -0.805,0 -1.463,0.658 -1.463,1.464 v 4.493 h 124.381 v -4.493 z"
   id="path3071"
   style="fill:#aadac1" />
<path
   d="m 508.303,-268.644 v -18.532 c 0,-0.805 -0.658,-1.463 -1.463,-1.463 h -28.508 c -0.805,0 -1.463,0.658 -1.463,1.463 v 18.532 c 0,0.807 -0.658,1.465 -1.463,1.465 h -8.17 c -0.805,0 -1.029,0.494 -0.498,1.098 0,0 0,0 0.002,0.002 l 12.439,14.143 12.442,14.143 c 0.529,0.604 1.4,0.604 1.932,0 l 24.881,-28.287 c 0.533,-0.605 0.309,-1.1 -0.496,-1.1 h -8.17 c -0.805,0.001 -1.465,-0.658 -1.465,-1.464 z"
   id="path3073"
   style="fill:#aadac1" />
<path
   d="m 388.168,-325.691 h -72.627 c -9.023,0 -16.338,7.31 -16.338,16.333 v 72.632 c 0,9.023 7.314,16.332 16.338,16.332 h 72.627 c 9.023,0 16.338,-7.309 16.338,-16.332 v -72.632 c 0,-9.023 -7.314,-16.333 -16.338,-16.333 z m -28.084,32.965 h 20.535 v 4.391 h -20.535 v -4.391 z m -10.531,34.371 c -0.805,1.328 -1.811,2.445 -3.016,3.35 -1.359,1.041 -2.963,1.752 -4.811,2.139 -1.848,0.385 -3.854,0.576 -6.016,0.576 h -19.184 v -42.573 H 337.1 c 5.191,0.077 8.869,1.588 11.035,4.534 1.301,1.811 1.953,3.977 1.953,6.499 0,2.6 -0.658,4.688 -1.973,6.268 -0.734,0.886 -1.816,1.694 -3.246,2.426 2.172,0.79 3.812,2.041 4.918,3.755 1.106,1.714 1.658,3.794 1.658,6.239 0.002,2.521 -0.628,4.785 -1.892,6.787 z m 37.619,-7.365 h -22.93 c 0.129,3.158 1.227,5.371 3.293,6.643 1.258,0.789 2.77,1.186 4.539,1.186 1.875,0 3.398,-0.482 4.57,-1.445 0.639,-0.52 1.203,-1.242 1.693,-2.166 h 8.404 c -0.221,1.867 -1.238,3.766 -3.051,5.689 -2.82,3.062 -6.77,4.592 -11.844,4.592 -4.191,0 -7.887,-1.291 -11.09,-3.873 -3.203,-2.582 -4.805,-6.783 -4.805,-12.604 0,-5.453 1.445,-9.636 4.338,-12.546 2.891,-2.909 6.643,-4.365 11.258,-4.365 2.74,0 5.207,0.492 7.404,1.476 2.195,0.983 4.01,2.536 5.439,4.657 1.289,1.87 2.125,4.04 2.508,6.509 0.225,1.445 0.315,3.528 0.274,6.247 z"
   id="path3075"
   style="fill:#aadac1" />
<path
   d="m 339.752,-270.313 c -1.008,-0.462 -2.426,-0.702 -4.254,-0.722 h -10.479 v 11.352 h 10.336 c 1.846,0 3.283,-0.25 4.311,-0.752 1.865,-0.924 2.799,-2.695 2.799,-5.314 0,-2.215 -0.904,-3.736 -2.713,-4.564 z"
   id="path3077"
   style="fill:#aadac1" />
<path
   d="m 339.869,-279.136 c 1.152,-0.703 1.729,-1.95 1.729,-3.74 0,-1.983 -0.762,-3.293 -2.285,-3.929 -1.316,-0.442 -2.992,-0.664 -5.031,-0.664 h -9.262 v 9.388 h 10.348 c 1.847,-10e-4 3.349,-0.352 4.501,-1.055 z"
   id="path3079"
   style="fill:#aadac1" />
<path
   d="m 371.551,-277.822 c -2.113,0 -3.75,0.6 -4.912,1.799 -1.164,1.199 -1.895,2.823 -2.193,4.873 h 14.182 c -0.15,-2.186 -0.881,-3.844 -2.193,-4.975 -1.314,-1.131 -2.941,-1.697 -4.884,-1.697 z"
   id="path3081"
   style="fill:#aadac1" />
<path
   d="M -67.331,-86.404001 -75.764,-181.008 h 92.755 l -8.433,94.603999 -38.048,10.695"
   id="path3083"
   style="fill:#aadac1" />
<path
   d="m -29.386,-83.935001 30.644,-8.434 7.198,-81.029999 h -37.842"
   id="path3085"
   style="fill:#c1e3d0" />
<path
   d="M -29.386,-138.231 H -44.81 l -1.028,-11.928 h 16.453 v -11.518 h -0.206 -29 l 0.206,3.086 2.879,32.083 h 26.12 v -11.723 z m 0,30.233 h -0.206 l -12.957,-3.498 -0.822,-9.254 h -6.17 -5.348 l 1.439,18.305 23.857,6.579999 h 0.206 V -107.998 z"
   id="path3087"
   style="fill:#ebebeb" />
<path
   d="m -29.592,-138.231 v 11.724 h 14.396 l -1.439,15.012 -12.957,3.498 v 12.132999 l 23.857,-6.579999 0.205,-2.057 2.674,-30.645 0.411,-3.085 h -3.29 -23.857 z m 0,-23.445 v 7.199 4.318 l 0,0 h 28.176 l 0,0 0,0 0.206,-2.469 0.617,-5.963 0.205,-3.086 h -29.204 z"
   id="path3089"
   style="fill:#ffffff" />
</svg>