<?xml version="1.0" encoding="utf-8"?>
<!-- Generator: Adobe Illustrator 17.1.0, SVG Export Plug-In . SVG Version: 6.00 Build 0)  -->
<!DOCTYPE svg PUBLIC "-//W3C//DTD SVG 1.1//EN" "http://www.w3.org/Graphics/SVG/1.1/DTD/svg11.dtd">
<svg version="1.1" id="Layer_1" xmlns="http://www.w3.org/2000/svg" xmlns:xlink="http://www.w3.org/1999/xlink" x="0px" y="0px"
	 viewBox="0 0 564 179" enable-background="new 0 0 564 179" xml:space="preserve">
<g>
	<g>
		<path fill="#FFFFFF" d="M93.5,132.1l-13.4,18.7c-0.2,0.2-0.4,0.3-0.6,0.3h-0.1c-0.3,0-0.5-0.1-0.6-0.3l-13.5-18.7v33.5
			c0,0.4-0.3,0.7-0.6,0.7c-0.4,0-0.7-0.3-0.7-0.7v-35.4c0-0.3,0.3-0.7,0.7-0.7c0.1,0,0.1,0,0.2,0.1c0.2,0,0.3,0.1,0.5,0.2l14.1,19.6
			l14.1-19.6c0.1-0.1,0.3-0.2,0.4-0.2c0.1-0.1,0.1-0.1,0.2-0.1c0.4,0,0.7,0.4,0.7,0.7v35.4c0,0.4-0.3,0.7-0.7,0.7
			c-0.3,0-0.6-0.3-0.6-0.7V132.1z"/>
		<path fill="#FFFFFF" d="M138.1,156.3h-18.4l-3.5,9.4c-0.1,0.3-0.3,0.5-0.6,0.5c-0.1,0-0.2-0.1-0.3-0.1c-0.3-0.2-0.5-0.5-0.3-0.9
			l13.3-35.4c0.1-0.3,0.4-0.5,0.7-0.4c0.3,0,0.5,0.2,0.7,0.4l13.3,35.4c0.2,0.4-0.1,0.7-0.4,0.9c-0.1,0-0.2,0.1-0.2,0.1
			c-0.3,0-0.5-0.2-0.7-0.5L138.1,156.3z M120.2,154.9h17.4l-8.7-23.1L120.2,154.9z"/>
		<path fill="#FFFFFF" d="M177.9,148.8c-0.3,0-0.7-0.3-0.7-0.6c0-0.4,0.4-0.7,0.7-0.7h12h0.1c0.4,0,0.6,0.3,0.6,0.7v13.4
			c0,0.1,0,0.1-0.1,0.2v0.1c-0.1,0.2-0.1,0.3-0.2,0.4c-3.3,2.5-7.5,4.1-12.1,4.1c-10.7-0.1-19.5-8.5-19.5-19.1
			c0-10.4,8.7-18.9,19.5-18.9c4.6,0,8.8,1.5,12.1,4.1c0.4,0.3,0.4,0.7,0.2,1.1c-0.2,0.3-0.7,0.3-1,0.1c-3.1-2.4-7-3.9-11.3-3.9
			c-10,0-18.1,7.9-18.1,17.6c0,9.8,8.1,17.7,18.1,17.7c4.1,0,7.9-1.4,11-3.6v-12.5H177.9z"/>
		<path fill="#FFFFFF" d="M214,166.3h-0.1c-0.4,0-0.7-0.3-0.7-0.7v-35.5c0-0.4,0.3-0.7,0.7-0.7c0.4,0,0.6,0.3,0.6,0.7V165h19
			c0.4,0,0.7,0.3,0.7,0.6c0,0.4-0.3,0.7-0.7,0.7H214z"/>
		<path fill="#FFFFFF" d="M253.3,130.1c0-0.4,0.3-0.7,0.7-0.7c0.3,0,0.6,0.3,0.6,0.7v35.5c0,0.4-0.3,0.7-0.6,0.7
			c-0.4,0-0.7-0.3-0.7-0.7V130.1z"/>
		<path fill="#FFFFFF" d="M294.6,128.9c9.9,0,17.9,8.5,18,19c-0.1,10.6-8.1,19.1-18,19.1c-10,0-17.9-8.5-18-19.1
			C276.7,137.4,284.7,128.9,294.6,128.9z M294.6,165.5c9-0.1,16.5-7.9,16.5-17.6c-0.1-9.8-7.5-17.6-16.5-17.6
			c-9.1,0-16.5,7.8-16.5,17.6C278.1,157.6,285.6,165.4,294.6,165.5z"/>
		<path fill="#FFFFFF" d="M363.2,132.1l-13.4,18.7c-0.2,0.2-0.4,0.3-0.6,0.3h-0.1c-0.3,0-0.5-0.1-0.6-0.3L335,132.1v33.5
			c0,0.4-0.3,0.7-0.6,0.7s-0.7-0.3-0.7-0.7v-35.4c0-0.3,0.3-0.7,0.7-0.7c0.1,0,0.1,0,0.2,0.1c0.2,0,0.3,0.1,0.5,0.2l14.1,19.6
			l14.1-19.6c0.1-0.1,0.3-0.2,0.4-0.2c0.1-0.1,0.1-0.1,0.2-0.1c0.4,0,0.7,0.4,0.7,0.7v35.4c0,0.4-0.3,0.7-0.7,0.7
			c-0.3,0-0.6-0.3-0.6-0.7V132.1z"/>
		<path fill="#FFFFFF" d="M407.8,156.3h-18.4l-3.5,9.4c-0.1,0.3-0.3,0.5-0.6,0.5c-0.1,0-0.2-0.1-0.3-0.1c-0.3-0.2-0.5-0.5-0.3-0.9
			l13.3-35.4c0.1-0.3,0.4-0.5,0.7-0.4c0.3,0,0.5,0.2,0.7,0.4l13.3,35.4c0.2,0.4-0.1,0.7-0.4,0.9c-0.1,0-0.2,0.1-0.2,0.1
			c-0.3,0-0.5-0.2-0.7-0.5L407.8,156.3z M389.9,154.9h17.4l-8.7-23.1L389.9,154.9z"/>
		<path fill="#FFFFFF" d="M431.5,130.1c0-0.4,0.3-0.7,0.7-0.7h0.1h7c10.2,0,18.4,8.3,18.4,18.4c0,10.2-8.2,18.5-18.4,18.5h-7h-0.1
			c-0.4,0-0.7-0.3-0.7-0.7V130.1z M439.2,165c9.5-0.1,17.1-7.7,17.1-17.2c-0.1-9.4-7.6-17.1-17.1-17.1h-6.4V165H439.2z"/>
		<path fill="#FFFFFF" d="M479.9,166.3h-0.1c-0.4,0-0.6-0.3-0.6-0.7v-35.5c0-0.3,0.2-0.6,0.6-0.7h0.1h0.1h19.5
			c0.4,0,0.6,0.3,0.6,0.7s-0.3,0.6-0.6,0.6h-19v16.4h16.7c0.4,0,0.6,0.3,0.6,0.6c0,0.4-0.3,0.7-0.6,0.7h-16.7V165h19
			c0.4,0,0.6,0.3,0.6,0.6c0,0.4-0.3,0.7-0.6,0.7H479.9L479.9,166.3z"/>
	</g>
	<g opacity="0.75">
		<path fill="#FFFFFF" d="M339.9,8.5c-1.7-2.7-3.7-5.3-5.8-7.8l-6.8,6.8l-4.2,4.2c0.1,0.1,0.1,0.1,0.2,0.2c2,2.5,3.7,5.1,5.3,7.9
			l4.4-4.4c4.8,8.3,7.5,17.9,7.5,28.1c0,13.6-4.8,26.1-12.9,35.8c-2,2.5-4.3,4.7-6.7,6.8l6.8,6.8c2.4-2.1,4.6-4.4,6.7-6.8
			c9.8-11.5,15.7-26.4,15.7-42.6C350,30.6,346.3,18.6,339.9,8.5z"/>
		<path fill="#FFFFFF" d="M236.5,79.3c-8.1-9.7-12.9-22.2-12.9-35.8c0-10.2,2.8-19.8,7.5-28.1l4.4,4.4c1.5-2.8,3.3-5.5,5.3-7.9
			c0.1-0.1,0.1-0.1,0.2-0.2l-4.2-4.2l-6.8-6.8c-2.1,2.4-4,5-5.8,7.8C217.8,18.6,214,30.6,214,43.5c0,16.3,5.9,31.1,15.7,42.6
			c2.1,2.4,4.3,4.7,6.7,6.8l6.8-6.8C240.8,84.1,238.6,81.8,236.5,79.3z"/>
		<path fill="#FFFFFF" d="M315.2,29.7c-1.2-2.8-2.7-5.4-4.5-7.8l-21.4,21.4l-6.8,6.8l-0.5,0.5l-0.5-0.5l-6.8-6.8l-21.4-21.4
			c-1.8,2.4-3.3,5-4.5,7.8c-0.1,0.3-0.2,0.6-0.4,0.9L268,50.1l6.8,6.8l7.3,7.3l7.3-7.3l6.8-6.8l19.4-19.4
			C315.4,30.3,315.3,30,315.2,29.7z"/>
		<path fill="#FFFFFF" d="M324.6,19.4c-1.5-2.9-3.3-5.7-5.4-8.2c-1.6-2-3.4-3.8-5.3-5.5c-0.7-0.6-1.3-1.2-2-1.8
			c-1.8-1.5-3.8-2.8-5.9-3.9l-24,24L258,0c-2,1.2-4,2.5-5.9,3.9c-0.7,0.6-1.4,1.2-2,1.8c-1.9,1.7-3.7,3.5-5.3,5.5
			c-2,2.5-3.8,5.3-5.3,8.2c-3.4,6.6-5.3,14-5.3,21.9c0,11.3,3.9,21.7,10.5,29.9c2,2.5,4.2,4.8,6.7,6.8l6.8-6.8
			c-2.5-2-4.7-4.3-6.7-6.9c-4.8-6.4-7.7-14.4-7.7-23c0-5.2,1.1-10.2,3-14.7c1.3-3.1,3-5.9,5-8.6c1.6-2,3.3-3.9,5.2-5.5L282,37.6
			l25.2-25.2c1.9,1.7,3.7,3.5,5.2,5.5c2,2.6,3.7,5.5,5,8.6c1.9,4.5,3,9.5,3,14.7c0,8.6-2.9,16.6-7.7,23c-1.9,2.6-4.2,4.9-6.7,6.9
			l6.8,6.8c2.5-2.1,4.7-4.3,6.7-6.8c6.6-8.2,10.5-18.6,10.5-29.9C329.9,33.4,328,26,324.6,19.4z"/>
	</g>
	<rect x="333.7" y="174.6" fill="#D59029" width="230.3" height="4.4"/>
</g>
</svg>
