<?xml version="1.0" encoding="UTF-8" standalone="no"?>
<!-- Generator: Adobe Illustrator 16.0.4, SVG Export Plug-In . SVG Version: 6.00 Build 0)  -->

<svg
   xmlns:dc="http://purl.org/dc/elements/1.1/"
   xmlns:cc="http://creativecommons.org/ns#"
   xmlns:rdf="http://www.w3.org/1999/02/22-rdf-syntax-ns#"
   xmlns:svg="http://www.w3.org/2000/svg"
   xmlns="http://www.w3.org/2000/svg"
   xmlns:sodipodi="http://sodipodi.sourceforge.net/DTD/sodipodi-0.dtd"
   xmlns:inkscape="http://www.inkscape.org/namespaces/inkscape"
   version="1.1"
   id="Layer_1"
   x="0px"
   y="0px"
   width="320px"
   height="134.857px"
   viewBox="0 0 320 134.857"
   enable-background="new 0 0 320 134.857"
   xml:space="preserve"
   inkscape:version="0.48.2 r9819"
   sodipodi:docname="magliomade-logo-full.svg"><metadata
   id="metadata39"><rdf:RDF><cc:Work
       rdf:about=""><dc:format>image/svg+xml</dc:format><dc:type
         rdf:resource="http://purl.org/dc/dcmitype/StillImage" /><dc:title></dc:title></cc:Work></rdf:RDF></metadata><defs
   id="defs37" /><sodipodi:namedview
   pagecolor="#ffffff"
   bordercolor="#666666"
   borderopacity="1"
   objecttolerance="10"
   gridtolerance="10"
   guidetolerance="10"
   inkscape:pageopacity="0"
   inkscape:pageshadow="2"
   inkscape:window-width="1261"
   inkscape:window-height="665"
   id="namedview35"
   showgrid="false"
   inkscape:zoom="1.5556349"
   inkscape:cx="159.93292"
   inkscape:cy="72.441938"
   inkscape:window-x="0"
   inkscape:window-y="0"
   inkscape:window-maximized="0"
   inkscape:current-layer="g25" />
<g
   id="g3"
   style="fill:#ffffff;fill-opacity:0.60000002">
	<path
   d="M30.283,100.88l-9.237,12.857c-0.109,0.109-0.253,0.181-0.398,0.181h-0.072   c-0.181,0-0.327-0.072-0.399-0.181l-9.272-12.895v23.071c0,0.255-0.181,0.472-0.435,0.472S10,124.169,10,123.915V99.539   c0-0.216,0.217-0.47,0.47-0.47c0.037,0,0.074,0,0.109,0.035c0.109,0,0.218,0.074,0.326,0.146l9.707,13.473l9.707-13.473   c0.072-0.072,0.181-0.146,0.291-0.146c0.035-0.035,0.072-0.035,0.109-0.035c0.289,0,0.47,0.253,0.47,0.47v24.375   c0,0.255-0.182,0.472-0.47,0.472c-0.218,0-0.435-0.217-0.435-0.472V100.88z"
   id="path5"
   style="fill:#ffffff;fill-opacity:0.60000002" />
	<path
   d="M60.994,117.504H48.316l-2.426,6.484c-0.037,0.181-0.218,0.326-0.399,0.326   c-0.035,0-0.109-0.037-0.181-0.037c-0.217-0.107-0.326-0.362-0.217-0.616l9.128-24.338c0.072-0.218,0.253-0.326,0.47-0.291   c0.181,0,0.362,0.109,0.471,0.291l9.126,24.338c0.109,0.253-0.036,0.508-0.253,0.616c-0.072,0-0.109,0.037-0.145,0.037   c-0.181,0-0.362-0.145-0.472-0.326L60.994,117.504z M48.678,116.562h11.953l-5.977-15.864L48.678,116.562z"
   id="path7"
   style="fill:#ffffff;fill-opacity:0.60000002" />
	<path
   d="M88.36,112.361c-0.218,0-0.472-0.217-0.472-0.435c0-0.291,0.253-0.507,0.472-0.507h8.223h0.071   c0.253,0,0.436,0.217,0.436,0.507v9.2c0,0.037,0,0.072-0.038,0.109v0.072c-0.036,0.109-0.071,0.181-0.145,0.253   c-2.246,1.739-5.178,2.825-8.329,2.825c-7.389-0.037-13.401-5.868-13.401-13.111c0-7.172,6.012-13.003,13.401-13.003   c3.151,0,6.083,1.051,8.329,2.825c0.253,0.182,0.289,0.472,0.109,0.725c-0.144,0.181-0.507,0.217-0.687,0.036   c-2.102-1.666-4.819-2.679-7.751-2.679c-6.882,0-12.459,5.469-12.459,12.097c0,6.736,5.578,12.169,12.459,12.169   c2.824,0,5.467-0.941,7.569-2.499v-8.584H88.36z"
   id="path9"
   style="fill:#ffffff;fill-opacity:0.60000002" />
	<path
   d="M113.182,124.386h-0.074c-0.253,0-0.472-0.217-0.472-0.472V99.504c0-0.253,0.218-0.472,0.472-0.472   s0.436,0.218,0.436,0.472v23.978h13.074c0.289,0,0.472,0.18,0.472,0.433c0,0.255-0.183,0.472-0.472,0.472H113.182z"
   id="path11"
   style="fill:#ffffff;fill-opacity:0.60000002" />
	<path
   d="M140.211,99.504c0-0.291,0.183-0.472,0.472-0.472c0.218,0,0.436,0.181,0.436,0.472v24.411   c0,0.29-0.218,0.472-0.436,0.472c-0.289,0-0.472-0.182-0.472-0.472V99.504z"
   id="path13"
   style="fill:#ffffff;fill-opacity:0.60000002" />
	<path
   d="M168.646,98.671c6.844,0,12.313,5.831,12.387,13.074c-0.074,7.28-5.543,13.112-12.387,13.112   c-6.847,0-12.313-5.833-12.352-13.112C156.333,104.502,161.8,98.671,168.646,98.671z M168.646,123.879   c6.192-0.072,11.335-5.433,11.374-12.134c-0.039-6.736-5.181-12.132-11.374-12.132c-6.23,0-11.374,5.396-11.374,12.132   C157.273,118.446,162.416,123.807,168.646,123.879z"
   id="path15"
   style="fill:#ffffff;fill-opacity:0.60000002" />
	<path
   d="M215.8,100.88l-9.237,12.857c-0.109,0.109-0.253,0.181-0.398,0.181h-0.071   c-0.183,0-0.327-0.072-0.401-0.181l-9.272-12.895v23.071c0,0.255-0.18,0.472-0.433,0.472s-0.472-0.217-0.472-0.472V99.539   c0-0.216,0.218-0.47,0.472-0.47c0.035,0,0.074,0,0.109,0.035c0.109,0,0.218,0.074,0.324,0.146l9.708,13.473l9.705-13.473   c0.074-0.072,0.183-0.146,0.292-0.146c0.035-0.035,0.071-0.035,0.109-0.035c0.289,0,0.469,0.253,0.469,0.47v24.375   c0,0.255-0.18,0.472-0.469,0.472c-0.218,0-0.436-0.217-0.436-0.472V100.88z"
   id="path17"
   style="fill:#ffffff;fill-opacity:0.60000002" />
	<path
   d="M246.51,117.504h-12.676l-2.426,6.484c-0.038,0.181-0.218,0.326-0.4,0.326c-0.036,0-0.109-0.037-0.18-0.037   c-0.218-0.107-0.327-0.362-0.218-0.616l9.127-24.338c0.074-0.218,0.253-0.326,0.472-0.291c0.18,0,0.362,0.109,0.472,0.291   l9.125,24.338c0.109,0.253-0.035,0.508-0.253,0.616c-0.071,0-0.109,0.037-0.145,0.037c-0.18,0-0.362-0.145-0.472-0.326   L246.51,117.504z M234.196,116.562h11.951l-5.977-15.864L234.196,116.562z"
   id="path19"
   style="fill:#ffffff;fill-opacity:0.60000002" />
	<path
   d="M262.806,99.504c0-0.253,0.183-0.472,0.472-0.472h0.035h4.819c7.026,0,12.676,5.687,12.676,12.641   c0,7.026-5.65,12.713-12.676,12.713h-4.819h-0.035c-0.289,0-0.472-0.217-0.472-0.472V99.504z M268.131,123.481   c6.519-0.074,11.733-5.289,11.771-11.809c-0.038-6.447-5.252-11.734-11.771-11.734h-4.421v23.543H268.131z"
   id="path21"
   style="fill:#ffffff;fill-opacity:0.60000002" />
	<path
   d="M296.127,124.386h-0.071c-0.292,0-0.437-0.217-0.437-0.472V99.504c0-0.218,0.145-0.435,0.437-0.472h0.035   h0.036h13.437c0.256,0,0.436,0.218,0.436,0.472s-0.18,0.435-0.436,0.435h-13.039v11.3h11.483c0.253,0,0.436,0.218,0.436,0.435   c0,0.291-0.183,0.472-0.436,0.472h-11.483v11.337h13.039c0.256,0,0.436,0.18,0.436,0.433c0,0.255-0.18,0.472-0.436,0.472h-13.398   H296.127z"
   id="path23"
   style="fill:#ffffff;fill-opacity:0.60000002" />
</g>
<g
   id="g25">
	<path
   d="M199.808,15.815c-1.191-1.883-2.514-3.672-3.961-5.355l-4.677,4.68l-2.915,2.912   c0.036,0.044,0.077,0.088,0.112,0.133c1.371,1.689,2.579,3.525,3.613,5.456l3.021-3.021c3.295,5.691,5.193,12.287,5.193,19.321   c0,9.352-3.336,17.938-8.88,24.636c-1.403,1.692-2.953,3.258-4.622,4.691l4.681,4.682c1.65-1.452,3.195-3.021,4.618-4.693   c6.723-7.9,10.787-18.13,10.787-29.315C206.778,31.067,204.217,22.8,199.808,15.815z"
   id="path27"
   style="fill:#ffffff;fill-opacity:0.60000002" />
	<path
   d="M128.686,64.576c-5.545-6.697-8.881-15.284-8.881-24.636c0-7.034,1.898-13.63,5.193-19.321l3.021,3.021   c1.035-1.931,2.243-3.767,3.613-5.456c0.036-0.044,0.074-0.088,0.11-0.133l-2.913-2.912l-4.679-4.68   c-1.446,1.683-2.769,3.472-3.958,5.355c-4.41,6.985-6.972,15.252-6.972,24.125c0,11.185,4.064,21.415,10.787,29.315   c1.423,1.672,2.968,3.24,4.618,4.693l4.681-4.682C131.638,67.834,130.087,66.268,128.686,64.576z"
   id="path29"
   style="fill:#ffffff;fill-opacity:0.60000002" />
	<path
   d="M182.791,30.439c-0.793-1.893-1.833-3.687-3.086-5.344l-14.689,14.689l-4.657,4.657l-0.36,0.358   l-0.359-0.358l-4.657-4.657l-14.689-14.689c-1.252,1.657-2.293,3.451-3.084,5.344c-0.087,0.212-0.167,0.424-0.248,0.636   l13.367,13.366l4.654,4.653l5.016,5.017l5.017-5.017l4.654-4.653l13.369-13.366C182.956,30.864,182.876,30.651,182.791,30.439z"
   id="path31"
   style="fill:#ffffff;fill-opacity:0.60000002" />
	<path
   d="M189.26,23.342c-1.038-2.006-2.27-3.892-3.681-5.632c-1.1-1.355-2.337-2.586-3.637-3.752   c-0.465-0.416-0.909-0.854-1.397-1.244c-1.264-1.011-2.629-1.896-4.035-2.714l-16.511,16.509L143.489,10   c-1.406,0.818-2.771,1.704-4.035,2.714c-0.488,0.389-0.932,0.828-1.396,1.244c-1.301,1.165-2.539,2.396-3.64,3.752   c-1.41,1.74-2.642,3.626-3.68,5.632c-2.335,4.521-3.664,9.648-3.664,15.088c0,7.775,2.7,14.913,7.206,20.547   c1.376,1.72,2.918,3.298,4.604,4.71L143.574,59c-1.721-1.378-3.266-2.96-4.595-4.72c-3.336-4.412-5.32-9.903-5.32-15.849   c0-3.59,0.725-7.015,2.031-10.137c0.887-2.114,2.044-4.091,3.425-5.887c1.067-1.385,2.266-2.661,3.581-3.811l17.303,17.303   l17.304-17.303c1.314,1.149,2.514,2.426,3.581,3.811c1.379,1.796,2.538,3.773,3.425,5.887c1.306,3.123,2.031,6.547,2.031,10.137   c0,5.946-1.983,11.437-5.32,15.849c-1.329,1.759-2.874,3.342-4.595,4.72l4.689,4.688c1.686-1.412,3.228-2.99,4.604-4.71   c4.507-5.634,7.206-12.772,7.206-20.547C192.923,32.99,191.597,27.863,189.26,23.342z"
   id="path33"
   style="fill:#ffffff;fill-opacity:0.60000002" />
</g>
</svg>