<?xml version="1.0" encoding="UTF-8" standalone="no"?>
<!-- Created with Inkscape (http://www.inkscape.org/) -->

<svg
   xmlns:dc="http://purl.org/dc/elements/1.1/"
   xmlns:cc="http://creativecommons.org/ns#"
   xmlns:rdf="http://www.w3.org/1999/02/22-rdf-syntax-ns#"
   xmlns:svg="http://www.w3.org/2000/svg"
   xmlns="http://www.w3.org/2000/svg"
   version="1.1"
   width="72.106247"
   height="74.53125"
   id="svg2"
   xml:space="preserve"><metadata
     id="metadata8"><rdf:RDF><cc:Work
         rdf:about=""><dc:format>image/svg+xml</dc:format><dc:type
           rdf:resource="http://purl.org/dc/dcmitype/StillImage" /><dc:title></dc:title></cc:Work></rdf:RDF></metadata><defs
     id="defs6"><clipPath
       id="clipPath16"><path
         d="M 0,72 72,72 72,0 0,0 0,72 z"
         id="path18" /></clipPath></defs><g
     transform="matrix(1.25,0,0,-1.25,-8.94675,82.2655)"
     id="g10"><g
       id="g12"><g
         clip-path="url(#clipPath16)"
         id="g14"><g
           transform="translate(52.1104,49.9204)"
           id="g20"><path
             d="m 0,0 -32.22,0 c -1.346,0 -2.437,1.091 -2.437,2.437 0,1.345 1.091,2.436 2.437,2.436 L 0,4.873 C 1.347,4.873 2.437,3.782 2.437,2.437 2.437,1.091 1.347,0 0,0 m -3.189,-18.047 c -0.952,-0.953 -2.494,-0.953 -3.445,0 l -7.038,7.038 0,-19.269 c 0,-1.344 -1.095,-2.435 -2.44,-2.435 -1.345,0 -2.436,1.091 -2.436,2.435 l 0,19.269 -7.039,-7.038 c -0.952,-0.953 -2.494,-0.953 -3.446,0 -0.951,0.949 -0.951,2.493 0,3.444 l 11.196,11.195 c 0,10e-4 0.001,0.003 0.002,0.004 0.008,0.008 0.019,0.014 0.027,0.023 0.106,0.103 0.221,0.197 0.344,0.28 0.064,0.043 0.133,0.073 0.2,0.109 0.073,0.038 0.143,0.083 0.22,0.115 0.083,0.035 0.169,0.055 0.254,0.079 0.067,0.02 0.131,0.046 0.201,0.06 0.158,0.031 0.317,0.048 0.477,0.048 0.161,0 0.32,-0.017 0.479,-0.048 0.069,-0.014 0.133,-0.04 0.2,-0.06 0.086,-0.024 0.172,-0.044 0.255,-0.079 0.075,-0.032 0.144,-0.077 0.22,-0.115 0.064,-0.036 0.135,-0.066 0.199,-0.109 0.125,-0.083 0.238,-0.177 0.344,-0.28 0.01,-0.009 0.019,-0.015 0.029,-0.023 0,-10e-4 0.002,-0.003 0.002,-0.004 l 11.195,-11.195 c 0.952,-0.951 0.952,-2.495 0,-3.444 m 6.614,33.939 -39.071,0 c -5.14,0 -9.307,-4.167 -9.307,-9.308 l 0,-41.009 c 0,-5.141 4.167,-9.308 9.307,-9.308 l 39.071,0 c 5.14,0 9.307,4.167 9.307,9.308 l 0,41.009 c 0,5.141 -4.167,9.308 -9.307,9.308"
             id="path22"
             style="fill:#afdcc4;fill-opacity:1;fill-rule:nonzero;stroke:none" /></g></g></g></g></svg>